<?xml version="1.0" encoding="UTF-8" standalone="no"?>
<!-- Created with Inkscape (http://www.inkscape.org/) -->

<svg
   version="1.1"
   id="svg1"
   width="2304"
   height="47"
   viewBox="0 0 2304 47"
   sodipodi:docname="line.svg"
   inkscape:version="1.3 (0e150ed6c4, 2023-07-21)"
   xmlns:inkscape="http://www.inkscape.org/namespaces/inkscape"
   xmlns:sodipodi="http://sodipodi.sourceforge.net/DTD/sodipodi-0.dtd"
   xmlns="http://www.w3.org/2000/svg"
   xmlns:svg="http://www.w3.org/2000/svg">
  <defs
     id="defs1" />
  <sodipodi:namedview
     id="namedview1"
     pagecolor="#ffffff"
     bordercolor="#666666"
     borderopacity="1.0"
     inkscape:showpageshadow="2"
     inkscape:pageopacity="0.0"
     inkscape:pagecheckerboard="0"
     inkscape:deskcolor="#d1d1d1"
     inkscape:zoom="0.35999837"
     inkscape:cx="959.72656"
     inkscape:cy="-184.72306"
     inkscape:window-width="1920"
     inkscape:window-height="1001"
     inkscape:window-x="-9"
     inkscape:window-y="-9"
     inkscape:window-maximized="1"
     inkscape:current-layer="g1" />
  <g
     inkscape:groupmode="layer"
     inkscape:label="Image"
     id="g1">
    <path
       style="fill:#000000"
       d="m 2105.6351,34.735073 c -1.5994,-0.426186 -14.9308,-0.78051 -29.6253,-0.7874 -14.6944,-0.0069 -27.3401,-0.402327 -28.1013,-0.878746 -1.0708,-0.670125 -0.9315,-0.907777 0.6151,-1.049825 1.0994,-0.101022 2.6743,-0.131151 3.4997,-0.06704 3.8645,0.300249 44.1268,1.001122 57.5062,1.001052 9.756,-2.6e-5 13.7781,0.281278 11.5044,0.804725 -5.9922,1.379581 -12.3698,1.784302 -15.3988,0.977217 z m 39.9004,-0.752781 c -1.9592,-1.543504 -1.9471,-1.567691 0.4947,-0.984527 1.3768,0.328822 2.8674,0.602032 3.3124,0.607146 0.445,0.0046 0.5333,0.460795 0.1964,1.012617 -0.8292,1.357964 -1.6359,1.229966 -4.0035,-0.635236 z m 7.5034,0.616393 c 8e-4,-0.549986 0.4447,-1.002408 0.9946,-1.005369 0.55,-0.003 1.0024,0.44461 1.0054,0.994602 -8e-4,0.549987 -0.4446,1.002408 -0.9946,1.005369 -0.55,0.003 -1.0024,-0.44461 -1.0054,-0.994602 z m -21.005,-0.886929 -5.5036,-0.64439 7.308,-0.202336 c 4.656,-0.128919 7.0857,0.161756 6.6955,0.800966 -0.337,0.551822 -1.1491,0.932849 -1.8046,0.846726 -0.6555,-0.08607 -3.6684,-0.446557 -6.6953,-0.800966 z M 2026.5915,32.38162 c -2.7797,-1.07137 -0.3212,-2.324925 2.9745,-1.516596 1.949,0.478035 2.292,0.874714 1.3041,1.508281 -1.5569,0.998588 -1.7083,0.998883 -4.2786,0.0083 z m 9.4329,-0.153005 c 8e-4,-0.549988 1.7946,-1.009676 3.9946,-1.021521 2.2,-0.01185 4.0024,0.428459 4.0053,0.978451 -8e-4,0.549987 -1.7946,1.009676 -3.9945,1.02152 -2.2,0.01185 -4.0024,-0.428458 -4.0054,-0.97845 z m -28.5043,-0.738464 c -2.2017,-0.322602 -3.5218,-0.904143 -2.9334,-1.292306 1.1963,-0.789282 17.1697,0.514482 18.1468,1.481175 0.76,0.751919 -9.6769,0.622346 -15.2134,-0.188869 z m -28.9217,-0.703267 c -0.2342,-0.231563 -34.0271,-0.782622 -55.3972,-0.903364 -2.5224,-0.01422 -4.0624,-0.428396 -3.7142,-0.998779 0.9248,-1.514611 82.5197,0.128858 82.528,1.662234 0.01,0.795345 -22.6209,1.027137 -23.4166,0.239909 z m -268.7646,0.04748 c -1.2788,-0.3508 -8.5876,-0.648955 -16.242,-0.662568 -7.6543,-0.01364 -13.6701,-0.274359 -13.3683,-0.579429 0.3017,-0.305058 14.6633,-0.531859 31.9144,-0.503972 17.2511,0.0279 70.177,-0.277131 117.613,-0.677796 61.1915,-0.51686 86.2491,-0.415139 86.2532,0.35023 0.01,1.048999 -12.0111,1.225991 -162.1679,2.388648 -22.9226,0.177509 -42.7237,0.03569 -44.0024,-0.315113 z m 398.6733,-2.02657 c -4.9521,-0.388885 -26.3303,-0.911211 -47.507,-1.160727 -21.1766,-0.249526 -39.4037,-0.579144 -40.5044,-0.732489 -6.3235,-0.880849 -19.6256,-1.537905 -39.5111,-1.951645 -12.3766,-0.257513 -26.5538,-0.620814 -31.5048,-0.807341 -4.9511,-0.186529 -41.6261,-0.09339 -81.5001,0.206969 -95.2378,0.717386 -140.157,0.766964 -158.5014,0.175026 -14.1089,-0.45529 -355.7791,-0.259799 -386.0043,0.22085 -7.6995,0.122452 -31.7741,0.275303 -53.499,0.339724 -21.725,0.06436 -57.7237,0.398768 -79.9972,0.743096 C 1131.76,26.741195 747.37104,28.48871 690.48281,28.11207 664.08148,27.937282 619.52915,27.622181 591.4776,27.411867 563.42607,27.201543 519.99969,27.063863 494.97455,27.10592 366.23793,27.322264 307.49592,26.984855 307.96607,26.03177 c 0.55511,-1.125335 118.98815,-1.955588 180.4958,-1.265342 20.35152,0.228388 76.82877,0.494579 125.505,0.591526 48.67623,0.09696 108.07823,0.30816 132.00444,0.469362 23.92622,0.161203 51.60136,0.113485 61.50032,-0.106026 9.89897,-0.219505 32.84822,-0.419199 50.99835,-0.443753 18.15013,-0.02451 90.82417,-0.39777 161.49792,-0.829357 70.6737,-0.431588 194.4216,-1.131613 274.9955,-1.555599 80.5739,-0.423786 153.248,-0.808843 161.4978,-0.855157 34.0457,-0.191292 75.1979,-0.08493 93.5027,0.241599 10.7261,0.191337 33.0019,0.276354 49.5017,0.188923 16.4997,-0.08783 30.8997,-0.133054 32,-0.101377 1.1001,0.03168 67.2505,-0.08092 147.0007,-0.250192 185.0104,-0.392685 189.8871,-0.382459 209.0054,0.438047 8.8021,0.377769 21.1802,0.906157 27.5067,1.174202 11.7321,0.497055 39.2391,1.211718 71.5111,1.857937 9.9012,0.198259 30.0024,0.388783 44.6695,0.423382 14.667,0.0346 27.0141,0.406041 27.4381,0.825435 2.3613,2.335722 -2.0814,2.781316 -19.6789,1.973762 -10.9879,-0.504243 -18.7967,-0.478072 -19.3606,0.06493 -0.5198,0.500497 -1.1929,0.849436 -1.4958,0.775425 -0.3029,-0.07397 -4.6026,-0.452729 -9.5547,-0.841603 z M 758.69165,34.47847 c -0.30213,-0.218337 -103.9721,-0.820423 -131.6796,-0.764756 -14.57506,0.02926 -27.40219,-0.332642 -28.50475,-0.804272 -2.14455,-0.917348 170.86405,-1.222548 183.25091,-0.323271 3.98913,0.289608 7.25461,0.835326 7.25664,1.212721 0.003,0.534812 -29.60532,1.198381 -30.3232,0.679578 z m 34.46472,-0.471942 c -0.67445,-0.411835 3.40423,-0.84139 9.06371,-0.95457 6.4764,-0.129568 9.76135,0.132741 8.8636,0.707662 -1.72203,1.102787 -16.19911,1.30217 -17.92731,0.246908 z m 23.43039,-0.09814 c -0.45923,-0.734188 0.46485,-1.117269 2.72445,-1.129433 1.88067,-0.01012 5.57589,-0.325824 8.21162,-0.701559 3.35763,-0.478644 4.59164,-0.354655 4.12218,0.414184 -0.36853,0.603532 -1.44862,1.114004 -2.4002,1.134398 -0.95157,0.02042 -4.03255,0.342244 -6.84663,0.71524 -3.34597,0.44351 -5.35696,0.293724 -5.81142,-0.43284 z m 80.42823,-0.374782 c -1.37599,-0.180865 -2.94767,-0.754412 -3.49259,-1.274535 -0.62949,-0.60082 1.2836,-0.868124 5.24613,-0.732994 3.43029,0.116974 6.23855,0.516842 6.24055,0.888596 0.005,0.873188 -4.77448,1.542136 -7.99409,1.118933 z m 11.4989,-0.234869 c -0.38303,-0.612367 1.23084,-1.00074 4.18562,-1.007238 3.47361,-0.0076 4.39395,0.260848 3.31427,0.96686 -1.96084,1.282216 -6.70714,1.307769 -7.49989,0.04038 z m 12.99945,-0.138486 c -2.75609,-0.622782 -2.6534,-0.690376 1.2456,-0.819928 4.23823,-0.140829 5.37013,0.262753 3.00582,1.071743 -0.68626,0.234808 -2.59939,0.121487 -4.25142,-0.251815 z m 7.00026,0.03081 c -0.34287,-0.548162 0.1047,-1.000577 0.9946,-1.005369 0.88991,-0.0048 1.34233,0.44278 1.00538,0.994602 -0.33697,0.551822 -0.78453,1.004238 -0.99461,1.005369 -0.21008,0.0011 -0.66249,-0.446439 -1.00537,-0.994602 z m 6.94973,-0.169107 c -2.19177,-0.456907 -2.43828,-0.692213 -0.95546,-0.91199 4.42633,-0.656059 13.4974,-0.518712 13.5013,0.204427 0.002,0.424424 -0.78297,0.843858 -1.74501,0.932069 -4.51591,0.414058 -8.09453,0.339672 -10.80083,-0.224506 z m 83.97357,-0.441489 c -0.3014,-0.481804 2.0285,-0.889874 5.1775,-0.906828 3.1492,-0.01696 5.539,0.135302 5.311,0.338353 -0.9836,0.875658 -9.9911,1.363858 -10.4885,0.568475 z m 18.5747,-0.0564 c -2.4768,-0.32886 8.2352,-0.734106 23.8045,-0.900537 19.5786,-0.209288 28.1091,0.02276 27.6635,0.752481 -0.6902,1.130401 -43.1497,1.25255 -51.468,0.148056 z m 53.9996,-0.213317 c 8e-4,-0.549987 2.0462,-1.01103 4.5536,-1.024529 2.7846,-0.01499 4.3205,0.365935 3.9463,0.978768 -0.3369,0.551822 -2.3861,1.012861 -4.5535,1.024529 -2.1676,0.01167 -3.9434,-0.428775 -3.9464,-0.978768 z m 10.4999,-0.05652 c -0.3842,-0.614271 1.3175,-1.007107 4.4355,-1.023894 2.7824,-0.01498 5.0614,0.422757 5.0643,0.972749 -8e-4,0.549986 -1.993,1.010745 -4.4355,1.023895 -2.4425,0.01315 -4.7215,-0.424588 -5.0643,-0.97275 z m 12.9547,-0.142046 c -0.3469,-0.55457 6.2488,-0.961365 16.4804,-1.016449 10.7059,-0.05763 17.0568,-0.464244 17.0534,-1.091826 -0.01,-1.239764 5.6683,-1.364405 6.4335,-0.141307 0.3062,0.489689 -0.6757,1.240116 -2.1821,1.667622 -4.0779,1.157271 -37.1071,1.665976 -37.7852,0.58196 z m 295.5408,-1.518716 c -15.1263,-0.193568 -51.2518,-0.188951 -80.2792,0.01026 -37.1174,0.254732 -52.4646,0.04656 -51.7245,-0.701604 1.056,-1.06729 166.7763,-2.042472 167.8424,-0.987717 1.765,1.746014 -5.1795,2.071345 -35.8387,1.679007 z m 37.5397,0.0037 c -1.772,-1.752986 0.7434,-2.237524 11.6989,-2.253616 6.7375,-0.0099 14.0495,-0.138739 16.2487,-0.286411 10.1946,-0.684315 39.5008,0.04334 39.5058,0.980909 -9e-4,0.646104 -7.6479,1.07371 -21.2438,1.187207 -11.6872,0.09752 -26.7435,0.341802 -33.4585,0.542756 -6.715,0.200944 -12.453,0.124045 -12.7511,-0.170845 z m 77.71,-0.364569 c -3.6491,-0.187586 -6.2543,-0.77754 -6.2576,-1.41713 -0.01,-0.759386 2.681,-0.914678 8.7473,-0.5059 4.8143,0.324415 20.1159,0.568702 34.0035,0.542856 14.5897,-0.02714 25.2521,0.340395 25.255,0.870568 0.01,0.861234 -47.3119,1.251728 -61.7482,0.509606 z m 64.8506,-0.04198 c 0.7157,-0.723343 84.8478,-1.402979 85.5671,-0.691232 0.3671,0.363129 -18.8323,0.765208 -42.6652,0.893517 -23.833,0.12831 -43.1389,0.03729 -42.9019,-0.202285 z m -741.09754,2.423104 c 1.75883,-1.150115 8.4321,-1.186042 11.99982,-0.0646 1.72783,0.543106 0.024,0.826682 -5.49515,0.914607 -5.50315,0.08762 -7.53298,-0.177588 -6.50467,-0.850004 z m 22.33723,0.210638 c 0.97403,-0.984578 16.65355,-1.222574 16.05585,-0.243713 -0.27846,0.456016 -4.15467,0.84876 -8.61381,0.872767 -4.45914,0.024 -7.80806,-0.259068 -7.44204,-0.629054 z m 79.4101,-0.97892 c 1.61346,-0.788867 2.87808,-0.795675 4.49994,-0.02422 1.98061,0.942111 1.70684,1.075967 -2.24413,1.097237 -3.95096,0.02127 -4.22616,-0.109628 -2.25581,-1.073011 z m 13.25104,0.155814 c -0.006,-1.018135 25.7663,-0.708956 26.80802,0.321601 0.29164,0.288523 -5.61966,0.557691 -13.1362,0.598158 -8.38331,0.04513 -13.66855,-0.310427 -13.67182,-0.919759 z m 31.7481,-0.208323 c 2.1569,-0.880525 20.16597,-0.494124 21.12357,0.453224 0.2564,0.253695 -4.8963,0.461608 -11.4505,0.462034 -8.14785,5.65e-4 -11.20725,-0.28895 -9.67307,-0.915258 z m 163.24907,-0.850846 c -0.01,-1.110767 9.0583,-1.856543 11.495,-0.945779 2.3851,0.891413 2.5998,0.836516 -5.2429,1.340306 -3.4363,0.220742 -6.2498,0.04365 -6.2521,-0.394527 z m 84.4364,-0.551882 c -0.3086,-0.493347 1.2654,-0.906826 3.4979,-0.918845 2.2323,-0.01202 4.0612,0.383142 4.0637,0.878134 -7e-4,0.494989 -1.5714,0.908474 -3.4978,0.918845 -1.9265,0.01038 -3.7552,-0.384789 -4.0638,-0.878134 z m 12.5621,0.03237 c 8e-4,-0.549986 1.1196,-1.006042 2.4946,-1.013443 1.375,-0.0074 2.5024,0.436534 2.5054,0.986526 -8e-4,0.549986 -1.1196,1.006042 -2.4946,1.013444 -1.375,0.0074 -2.5024,-0.436534 -2.5054,-0.986527 z m 9.0002,-0.0024 c 5e-4,-0.394991 1.7957,-0.79839 3.9952,-0.896443 2.1995,-0.09804 4.0013,0.240282 4.0041,0.751845 -8e-4,0.511557 -1.7951,0.914957 -3.9952,0.896442 -2.2001,-0.01855 -4.002,-0.35685 -4.0041,-0.751844 z m -90.3013,-0.663541 c 0.7867,-0.795187 1.6225,-0.808306 2.9498,-0.04628 1.6236,0.932113 1.4882,1.068974 -1.0976,1.109556 -2.1512,0.03378 -2.6526,-0.254103 -1.8522,-1.063264 z m 9.0487,0.392641 c 0.686,-0.281107 1.8109,-0.287163 2.4999,-0.01346 0.689,0.273705 0.1278,0.5037 -1.2473,0.511102 -1.375,0.0074 -1.9386,-0.216536 -1.2526,-0.497643 z m 6.7986,-0.258346 c 0.52,-0.489015 2.9721,-0.558538 5.4493,-0.154509 l 4.504,0.734623 -5.4492,0.154499 c -3.1999,0.09072 -5.0591,-0.212487 -4.5041,-0.734613 z m 14.2634,0.124123 c 0.7203,-0.292762 1.5831,-0.261876 1.9171,0.06868 0.3341,0.330497 -0.2553,0.570023 -1.3096,0.532279 -1.1652,-0.04173 -1.4035,-0.277399 -0.6075,-0.600909 z m 8.4372,-0.07852 c 1.5113,-0.237269 3.9863,-0.250593 5.5,-0.02961 1.5136,0.220975 0.2772,0.415104 -2.7478,0.43139 -3.0249,0.01629 -4.2634,-0.16452 -2.7522,-0.40178 z m 10.019,-0.03063 c 0.9716,-0.258785 2.3217,-0.249374 3.0001,0.02084 0.6786,0.270271 -0.1164,0.481994 -1.7665,0.470497 -1.65,-0.0115 -2.2051,-0.232621 -1.2336,-0.491405 z m 6.4808,-0.04759 c 1.2362,-0.245019 3.2612,-0.255921 4.5,-0.02422 1.2387,0.231684 0.2274,0.432143 -2.2477,0.445467 -2.4749,0.01333 -3.4884,-0.176231 -2.2523,-0.42124 z m 8.0626,-0.02081 c 0.7203,-0.292762 1.583,-0.261876 1.9171,0.06868 0.334,0.330496 -0.2554,0.570023 -1.3097,0.532279 -1.1652,-0.04172 -1.4034,-0.277399 -0.6074,-0.600908 z m -816.80795,3.05432 c -1.92667,-0.304923 -6.03247,-0.356619 -9.124,-0.114882 -3.46618,0.271044 -5.88614,0.01559 -6.3127,-0.666344 -0.4921,-0.786723 2.78852,-1.124619 11.36711,-1.170804 6.63236,-0.03571 12.06098,0.332612 12.06361,0.818486 0.006,1.241571 -3.85321,1.7889 -7.99402,1.133544 z m 25.50027,-0.0183 c -5.22574,-0.591155 -5.23322,-1.977735 -0.009,-1.624817 1.65062,0.111506 4.01399,0.267725 5.25194,0.347151 1.23794,0.07944 2.25323,0.594398 2.25619,1.14439 0.003,0.549993 -0.55748,0.932314 -1.24544,0.849617 -0.68795,-0.0827 -3.50224,-0.405061 -6.25395,-0.716341 z m 9.99936,-0.146735 c -0.38705,-0.618785 1.48422,-1.008005 4.93553,-1.026586 3.0574,-0.01646 5.56135,0.420066 5.56431,0.970058 0.003,0.549992 -2.21802,1.011955 -4.93552,1.026585 -2.7175,0.01463 -5.22145,-0.421895 -5.56432,-0.970057 z m 11.99982,-0.0646 c -0.37592,-0.600994 0.96455,-1.005207 3.37654,-1.018192 2.19997,-0.01184 4.28047,0.426961 4.62334,0.975123 0.37593,0.600995 -0.96454,1.005208 -3.37653,1.018193 -2.19997,0.01185 -4.28047,-0.426961 -4.62335,-0.975124 z m 10.91232,0.08412 c 0.68555,-1.122707 11.5821,-1.181371 11.58813,-0.06239 0.002,0.471423 -2.72191,0.871807 -6.05433,0.889747 -3.3324,0.01794 -5.82262,-0.354368 -5.5338,-0.827359 z m 17.08727,-0.234856 c 0.33697,-0.551822 0.81109,-1.004381 1.05363,-1.005687 0.24254,-0.0013 0.4434,0.44762 0.44636,0.997612 0.003,0.549992 -0.47117,1.002551 -1.05363,1.005687 -0.58244,0.0032 -0.78331,-0.445789 -0.44636,-0.997612 z m 5.99992,-0.0323 c -0.38196,-0.610643 1.0457,-0.967034 3.68608,-0.920178 3.64176,0.0646 3.92281,0.202614 1.81384,0.890568 -3.55355,1.159178 -4.78922,1.16583 -5.49992,0.02961 z m 16.88904,0.08979 c 0.49661,-0.813286 71.6998,-0.808647 72.52196,0.0047 0.23453,0.23201 -16.0999,0.510813 -36.29874,0.619558 -20.19884,0.108744 -36.49928,-0.172184 -36.22322,-0.624286 z m -347.3894,0.732438 c -1.92662,-0.295342 -3.05441,-0.810348 -2.5062,-1.144454 1.38498,-0.844059 54.12995,-1.480238 53.30157,-0.642886 -0.36911,0.373103 -10.71151,0.935031 -22.98311,1.248721 -12.27161,0.3137 -22.76141,0.684039 -23.31067,0.822988 -0.54925,0.138949 -2.57498,0.01086 -4.50159,-0.284369 z m 115.49812,-0.659015 c -4.01468,-0.392073 -4.50968,-0.623001 -2.50633,-1.169304 2.27629,-0.620734 9.97404,-0.23481 10.7565,0.539278 0.75898,0.750855 -3.6025,1.083921 -8.25017,0.630026 z m 14.71355,-0.264637 c -0.94511,-0.368767 3.11869,-0.76029 9.03069,-0.87006 5.91199,-0.10973 12.77387,-0.242634 15.24863,-0.295237 2.47475,-0.05262 4.61418,0.300152 4.75429,0.783916 0.29674,1.024596 -26.48345,1.376386 -29.03361,0.381381 z m 34.78571,-0.0076 c -0.003,-0.578462 3.1809,-1.01714 7.55352,-1.040681 4.78463,-0.02576 7.33405,0.327541 6.94627,0.962618 -0.33695,0.551822 -3.73605,1.020128 -7.55353,1.040681 -3.9606,0.02132 -6.94319,-0.392006 -6.94626,-0.962618 z m 23.99964,-0.129207 c -0.003,-0.549993 0.44462,-1.002409 0.99461,-1.005369 0.54999,-0.003 1.00241,0.44461 1.00537,0.994601 0.003,0.549993 -0.44461,1.002409 -0.9946,1.005369 -0.55,0.003 -1.00241,-0.444609 -1.00538,-0.994601 z m 10.00004,-0.02244 c -0.003,-0.532734 0.67116,-0.713214 1.49785,-0.401081 0.8267,0.312135 1.50403,0.744374 1.5052,0.960521 6.8e-4,0.216147 -0.67288,0.396639 -1.49787,0.401081 -0.82499,0.0044 -1.50232,-0.427799 -1.50518,-0.960531 z m 9.99968,-0.08523 c -0.003,-0.549992 1.00713,-0.998547 2.24466,-0.996789 1.81948,0.0026 1.96402,0.190249 0.7553,0.980638 -1.93199,1.263339 -2.99322,1.269052 -2.99996,0.01616 z m 10.49984,-0.05653 c 0.33696,-0.551821 3.08761,-1.016637 6.11256,-1.032922 3.41198,-0.01837 5.26735,0.351277 4.88728,0.973703 -0.33695,0.551821 -3.0876,1.016637 -6.11255,1.032923 -3.41198,0.01837 -5.26735,-0.351278 -4.88729,-0.973704 z m 41.9994,-0.226112 c 0.33695,-0.551823 0.81108,-1.004381 1.05362,-1.005687 0.24253,-0.0013 0.44339,0.447619 0.44635,0.997611 0.003,0.549993 -0.47117,1.002552 -1.05361,1.005687 -0.58246,0.0032 -0.78332,-0.445789 -0.44636,-0.997611 z m -290.00119,0.561268 c -3.98644,-0.524926 -2.83048,-0.702501 5.68636,-0.873525 6.22571,-0.125019 10.95034,0.201559 11.31339,0.782003 0.69727,1.114723 -8.83933,1.166065 -16.99975,0.09152 z m 21.3139,0.202147 c 0.72031,-0.292762 1.58298,-0.261876 1.91707,0.06868 0.33407,0.330497 -0.25528,0.570023 -1.30965,0.532279 -1.16519,-0.04173 -1.40342,-0.277399 -0.60742,-0.600909 z m 60.18493,-0.640913 c -0.003,-0.549992 1.54303,-1.008322 3.43554,-1.01851 1.89251,-0.01019 3.72147,0.42997 4.06435,0.978133 0.37649,0.601911 -0.98423,1.005313 -3.43555,1.018511 -2.23243,0.01202 -4.06138,-0.428142 -4.06434,-0.978134 z m 25.50962,-0.153637 c 0.34245,-0.560821 1.04292,-0.763035 1.55662,-0.449367 1.39164,0.849751 1.13624,1.451195 -0.62026,1.460651 -0.85745,0.0047 -1.27881,-0.450462 -0.93636,-1.011284 z m 16.98976,-0.07517 c 0.33695,-0.551821 1.45951,-1.007871 2.49458,-1.013443 1.03506,-0.0056 2.16247,0.438363 2.50535,0.986526 0.36469,0.583045 -0.67056,1.003624 -2.49459,1.013444 -1.82402,0.0098 -2.86374,-0.399588 -2.50534,-0.986527 z m 8.99987,-0.04846 c 0.33695,-0.551822 1.23451,-1.006661 1.99459,-1.010753 0.76007,-0.0041 1.66247,0.441056 2.00535,0.989219 0.35497,0.567497 -0.5039,1.002727 -1.99459,1.010752 -1.49068,0.008 -2.3542,-0.417932 -2.00535,-0.989218 z m 79.31305,-0.110105 c 0.72031,-0.292761 1.58299,-0.261875 1.91707,0.06868 0.33407,0.330496 -0.25528,0.570023 -1.30965,0.532279 -1.16519,-0.04172 -1.40341,-0.277399 -0.60742,-0.60091 z M 126.98753,30.506147 c -0.007,-1.264392 2.03664,-1.275393 3.99994,-0.02153 1.17292,0.749076 0.89817,0.967928 -1.24468,0.991405 -1.51244,0.01614 -2.7523,-0.419879 -2.75526,-0.969871 z m 48.91406,-2.659633 c -0.23645,-0.228772 -11.00429,-0.646247 -23.92855,-0.927732 -21.56018,-0.469564 -28.06743,-1.286324 -23.72828,-2.978268 0.89299,-0.348204 4.90582,-0.344246 8.9174,0.0088 6.47229,0.569584 95.49971,0.987838 148.98081,0.699911 13.18287,-0.07097 19.81694,0.245047 19.8207,0.944177 0.004,0.71305 -8.27215,1.023769 -25.74516,0.966587 -14.16296,-0.04636 -32.72591,-0.08181 -41.25103,-0.07881 -22.94326,0.0081 -59.26594,0.794108 -61.06609,1.321417 -0.86344,0.252922 -1.76335,0.272678 -1.9998,0.04387 z"
       id="path1" />
  </g>
</svg>
