<?xml version="1.0" encoding="UTF-8" standalone="no"?>
<!-- Created with Inkscape (http://www.inkscape.org/) -->

<svg
   version="1.1"
   id="svg1"
   width="2082"
   height="256"
   viewBox="0 0 2082 256"
   sodipodi:docname="title.svg"
   inkscape:version="1.3 (0e150ed6c4, 2023-07-21)"
   xmlns:inkscape="http://www.inkscape.org/namespaces/inkscape"
   xmlns:sodipodi="http://sodipodi.sourceforge.net/DTD/sodipodi-0.dtd"
   xmlns="http://www.w3.org/2000/svg"
   xmlns:svg="http://www.w3.org/2000/svg">
  <defs
     id="defs1" />
  <sodipodi:namedview
     id="namedview1"
     pagecolor="#ffffff"
     bordercolor="#666666"
     borderopacity="1.0"
     inkscape:showpageshadow="2"
     inkscape:pageopacity="0.0"
     inkscape:pagecheckerboard="0"
     inkscape:deskcolor="#d1d1d1"
     inkscape:zoom="0.3216283"
     inkscape:cx="845.69672"
     inkscape:cy="287.59907"
     inkscape:window-width="1920"
     inkscape:window-height="1001"
     inkscape:window-x="-9"
     inkscape:window-y="-9"
     inkscape:window-maximized="1"
     inkscape:current-layer="g1" />
  <g
     inkscape:groupmode="layer"
     inkscape:label="Image"
     id="g1">
    <path
       style="fill:#000000"
       d="m 603.5454,227.10019 c -0.32198,-0.52097 -0.15917,-1.21065 0.3618,-1.53262 0.52097,-0.32198 1.21065,-0.15917 1.53262,0.3618 0.32198,0.52097 0.15917,1.21065 -0.3618,1.53262 -0.52097,0.32198 -1.21065,0.15917 -1.53262,-0.3618 z m 187.44721,-1.84486 c 0,-0.4177 0.9,-1.32152 2,-2.00848 2.35621,-1.47147 2.69303,-5.23207 0.46862,-5.23207 -2.09378,0 -2.96512,-2.69683 -1.45805,-4.51273 1.90369,-2.29381 3.62666,-1.7773 4.98139,1.49332 1.39138,3.35908 0.76933,7.11526 -1.56489,9.44948 -1.62756,1.62756 -4.42707,2.14007 -4.42707,0.81048 z m 274.99999,0.0739 c 0,-0.37705 0.8483,-1.61455 1.8851,-2.75 1.0368,-1.13545 2.1921,-3.07695 2.5674,-4.31445 0.5841,-1.92626 0.3129,-2.25 -1.8851,-2.25 -1.8449,0 -2.5674,-0.52835 -2.5674,-1.87756 0,-2.85624 2.4604,-4.48161 4.8489,-3.20329 3.2725,1.75135 3.2627,2.75313 -0.1202,12.33085 -0.5932,1.67946 -1.7027,2.75 -2.85,2.75 -1.0333,0 -1.8787,-0.3085 -1.8787,-0.68555 z m -488.21349,-5.99675 c -0.94242,-0.24766 -3.38828,-2.73181 -5.43524,-5.52033 -3.37196,-4.59352 -3.7163,-5.64969 -3.66374,-11.23733 0.18013,-19.14647 18.98075,-24.70543 26.92625,-7.96154 1.2355,2.60363 1.51972,5.14975 1.12448,10.07353 -0.48346,6.023 -0.86015,6.91168 -4.38358,10.34174 -2.12007,2.06388 -5.09217,4.03867 -6.60467,4.38842 -3.41528,0.78975 -3.68412,-0.95093 -0.27886,-1.80559 1.35912,-0.34112 2.92945,-1.47659 3.48962,-2.52327 1.14408,-2.13775 1.56358,-20.17843 0.56145,-24.1455 -0.90277,-3.57373 -6.39137,-5.58173 -10.21784,-3.73819 -3.35924,1.61844 -4.07773,4.08559 -4.20469,14.43824 -0.11154,9.09472 1.66285,14.84459 4.89785,15.87134 1.11733,0.35462 1.77342,1.06237 1.45797,1.57278 -0.59819,0.9679 -0.85531,0.98512 -3.669,0.2457 z m 47.2135,-0.2307 c -4.69606,-0.5012 -5.1046,-0.69776 -2.79497,-1.34477 3.27681,-0.91793 7.32461,-6.05658 8.26492,-10.49223 1.30368,-6.14976 2.67264,-3.4332 2.39369,4.75 -0.16566,4.85948 -0.68313,7.93601 -1.31818,7.837 -0.575,-0.0896 -3.52046,-0.42714 -6.54546,-0.75 z m -178.50116,-1.08887 c -0.34055,-0.55103 0.54563,-1.44474 1.9693,-1.98602 l 2.58848,-0.98414 -0.27831,-13.74631 -0.27831,-13.74632 -2.41229,-0.0177 c -1.32676,-0.01 -2.60176,-0.58017 -2.83333,-1.26767 -0.31768,-0.94312 1.96412,-1.25 9.29425,-1.25 8.03264,0 10.28685,0.35323 13.01525,2.03948 4.35573,2.69199 9.44212,10.46244 9.41416,14.38196 -0.0325,4.54859 -3.16812,10.66026 -7.35586,14.33714 -3.60341,3.16383 -3.91691,3.24142 -13.09796,3.24142 -5.20382,0 -9.68282,-0.4476 -10.02538,-1.00187 z m 20.68307,-4.24813 c 1.83165,-2.56801 2.3812,-4.82383 2.61885,-10.75 0.39146,-9.7616 -1.58531,-14.07625 -7.06975,-15.43101 -5.73418,-1.41643 -6.11611,-0.49745 -6.04049,14.53453 0.0711,14.14404 0.3323,14.85171 5.49139,14.88117 1.89355,0.0108 3.36331,-0.94003 5,-3.23469 z m 14.81809,3.75 c 0,-0.93333 0.94444,-1.5 2.5,-1.5 2.71453,0 2.63333,0.58583 2.63333,-19 0,-8.71162 -0.0338,-8.84625 -2.305,-9.18045 -1.19442,-0.17575 -2.35692,-0.88205 -2.58334,-1.56955 -0.30639,-0.93035 1.64032,-1.25 7.61266,-1.25 7.69492,0 12.16185,1.52069 6.4093,2.18194 l -2.76695,0.31806 -0.2896,12 c -0.35424,14.67829 0.0111,16.5 3.30865,16.5 1.53862,0 2.48095,0.56974 2.48095,1.5 0,1.21569 -1.61111,1.5 -8.5,1.5 -6.88889,0 -8.5,-0.28431 -8.5,-1.5 z m 51,0.56642 c 0,-0.51347 1.2375,-1.07597 2.75,-1.25 l 2.75,-0.31642 0.25448,-12.5 c 0.29871,-14.67246 -0.10315,-17.23606 -2.63461,-16.8072 -0.99732,0.16896 -1.99479,-0.1428 -2.21659,-0.6928 -0.60894,-1.50998 14.9471,-1.83409 19.34133,-0.40298 3.90246,1.27095 7.75539,6.21137 7.75539,9.94436 0,1.05989 -1.2375,3.30724 -2.75,4.99411 -2.2622,2.52301 -3.75024,3.16943 -8.38887,3.64421 l -5.63887,0.57717 0.23821,4.62156 c 0.13102,2.54186 0.30601,5.18407 0.38887,5.87157 0.083,0.68874 1.49768,1.25 3.15066,1.25 1.65,0 3,0.45 3,1 0,0.59259 -3.66667,1 -9,1 -4.95,0 -9,-0.42011 -9,-0.93358 z m 21.41386,-18.19939 c 0.99023,-2.35506 1.05725,-4.03107 0.26992,-6.75 -1.50751,-5.20598 -2.32392,-5.93329 -6.47267,-5.76636 l -3.71111,0.14933 -0.29206,7.75 -0.29207,7.75 h 4.59034 c 4.19669,0 4.7033,-0.26867 5.90765,-3.13297 z m 49.58614,18.19939 c 0,-0.51347 1.2375,-1.07597 2.75,-1.25 l 2.75,-0.31642 0.27675,-14.13488 0.27676,-14.13487 -2.52676,-0.63418 c -5.16543,-1.29644 -2.26368,-2.44739 5.97325,-2.36923 4.675,0.0444 8.5,0.46147 8.5,0.92691 0,0.84379 -1.4469,1.21322 -3.67459,0.93821 -2.18504,-0.26974 -2.53392,2.02042 -2.39649,15.73097 0.11489,11.46151 0.4057,13.87956 1.79522,14.92707 1.37342,1.03538 0.33756,1.25 -6.03301,1.25 -4.23012,0 -7.69113,-0.42011 -7.69113,-0.93358 z m 35.32067,-0.52843 c 0.1903,-0.57089 1.2085,-1.03799 2.26266,-1.03799 2.48189,0 3.01502,-3.63642 2.60233,-17.75 -0.314,-10.73843 -0.31705,-10.75 -2.83333,-10.75 -1.56924,0 -2.36297,-0.4713 -2.10517,-1.25 0.27561,-0.83252 3.17481,-1.34753 8.68067,-1.54202 6.40876,-0.22638 8.17005,-0.002 7.83618,1 -0.23687,0.71061 -0.95568,1.34827 -1.59734,1.41702 -0.64167,0.0687 -1.61667,0.18125 -2.16667,0.25 -0.6131,0.0766 -1,5.54167 -1,14.125 v 14 h 2.58333 c 1.62233,0 2.42826,0.465 2.16647,1.25 -0.28673,0.85979 -2.97012,1.26186 -8.596,1.28799 -5.2235,0.0243 -8.0541,-0.33709 -7.83313,-1 z m 27.346,0.79534 c -1.43358,-1.43357 -0.53382,-2.33333 2.33333,-2.33333 2.97964,0 3.00034,-0.039 3.05062,-5.75 0.0278,-3.1625 0.28364,-9.6875 0.56846,-14.5 l 0.51786,-8.75 h -2.44603 c -2.97677,0 -4.05198,1.23207 -5.90286,6.76403 -1.82513,5.45498 -2.78805,4.44279 -2.78805,-2.9307 v -5.83333 h 12.93261 c 14.54513,0 13.71381,-0.49555 14.00841,8.35043 0.1195,3.58842 -0.17704,4.73768 -1.13974,4.41713 -0.71571,-0.23831 -1.44435,-1.296 -1.61922,-2.35043 -0.17486,-1.05442 -0.99622,-3.40649 -1.82524,-5.22682 -1.13368,-2.4893 -2.04637,-3.23293 -3.68206,-3 -2.10159,0.29927 -2.1841,0.78915 -2.45222,14.55969 l -0.27745,14.25 h 2.52745 c 2.81552,0 3.39045,1.45486 0.94567,2.39301 -2.1407,0.82146 -13.91805,0.77382 -14.75154,-0.0597 z m 28.33333,-0.26691 c 0,-0.51347 1.2375,-1.07597 2.75,-1.25 l 2.75,-0.31642 v -14 c 0,-13.33289 -0.0953,-14.00006 -2,-14.00132 -1.1,-7.2e-4 -2,-0.64264 -2,-1.42647 0,-1.305 4.79118,-1.70214 14,-1.16045 2.21087,0.13006 1.82398,1.47184 -0.75,2.60111 -2.15539,0.94562 -2.2617,1.56527 -2.52822,14.73713 l -0.27822,13.75 h 3.02822 c 1.66552,0 3.02822,0.45 3.02822,1 0,0.59259 -3.66667,1 -9,1 -4.95,0 -9,-0.42011 -9,-0.93358 z m 30.67236,-1.68895 c -2.22231,-1.45431 -4.47541,-4.05092 -5.37214,-6.19117 -2.13199,-5.0885 -1.77037,-13.58364 0.80466,-18.90296 3.65217,-7.54437 12.74453,-10.28298 18.18805,-5.47821 1.65534,1.4611 1.83695,1.4142 2.36663,-0.61129 1.12795,-4.31327 2.34044,-2.08241 2.34044,4.30616 0,3.575 0.0338,6.82625 0.075,7.225 0.0412,0.39875 -0.40875,0.88625 -1,1.08333 -0.59125,0.19709 -1.075,-0.55261 -1.075,-1.66598 0,-1.11337 -0.45,-2.30243 -1,-2.64235 -0.55,-0.33992 -1,-1.42173 -1,-2.40403 0,-3.06741 -3.41317,-5.26056 -7.6448,-4.91218 -5.82673,0.47969 -6.72079,3.52093 -6.44045,21.90792 l 0.0852,5.59171 4.11372,1.23251 c 6.90249,2.06803 10.33608,-0.46213 12.43875,-9.16593 0.83363,-3.45075 2.44753,-3.59442 2.44753,-0.21788 0,6.81616 -6.32486,13.53752 -12.61803,13.40905 -1.58509,-0.0324 -4.60441,-1.18603 -6.70961,-2.5637 z m 26.57764,1.95025 c -2.28205,-0.90257 -1.35546,-3.32772 1.27144,-3.32772 1.81508,0 2.83219,-0.77039 3.6307,-2.75 0.61009,-1.5125 1.67596,-4.1 2.36859,-5.75 0.69264,-1.65 2.02203,-5.475 2.95421,-8.5 0.93218,-3.025 2.08347,-6.4 2.55842,-7.5 0.47495,-1.1 0.99924,-2.86271 1.16509,-3.91713 0.69807,-4.43809 2.57438,-2.00995 5.52804,7.15386 1.73079,5.3698 3.61256,11.11327 4.18172,12.76327 0.56916,1.65 1.28123,4.2375 1.58237,5.75 0.42088,2.11391 1.12138,2.75 3.02847,2.75 3.41126,0 3.18452,2.67142 -0.26905,3.17005 -7.39354,1.0675 -16.04735,-1.36426 -10.25,-2.8803 2.3491,-0.6143 2.35667,-0.6614 0.79911,-4.96875 -1.0705,-2.96042 -1.60956,-3.321 -4.96481,-3.321 -2.69783,0 -4.05714,0.54786 -4.79912,1.93426 -1.63968,3.06378 -1.22698,5.78232 0.96482,6.35549 3.25681,0.85167 2.31427,2.79218 -1.25,2.5735 -1.7875,-0.10967 -4.15,0.0612 -5.25,0.37972 -1.1,0.31852 -2.5625,0.35666 -3.25,0.0847 z m 16.75,-15.7687 c 0,-1.34254 -0.45,-2.7191 -1,-3.05902 -0.55,-0.33992 -1,-1.49148 -1,-2.55902 0,-3.48415 -1.46677,-2.01934 -3.07651,3.0724 l -1.57651,4.98662 h 3.32651 c 2.86016,0 3.32651,-0.3422 3.32651,-2.44098 z m 72.19923,14.23643 c -3.21322,-1.98478 -3.33703,-1.98925 -4.66824,-0.16872 -0.75211,1.02857 -1.62018,1.61741 -1.92905,1.30854 -0.8696,-0.86959 0.5768,-13.93527 1.54266,-13.93527 0.47047,0 0.8554,0.91445 0.8554,2.03212 0,1.11766 0.63905,3.56159 1.42012,5.43094 2.58424,6.18495 12.7129,6.83946 14.19921,0.91753 0.95626,-3.81005 -0.32597,-5.27048 -8.17793,-9.3145 -7.63872,-3.9342 -9.77471,-6.75207 -9.02438,-11.90532 0.99615,-6.84156 5.34353,-9.04963 12.10831,-6.14991 3.90831,1.67529 4.63236,1.74178 5.12032,0.47018 1.15129,-3.00023 1.9312,-1.32676 2.09242,4.48974 0.091,3.28394 -0.21512,6.20602 -0.68031,6.49352 -0.46518,0.2875 -1.5989,-1.35949 -2.51938,-3.65997 -2.04336,-5.10688 -4.03612,-6.73098 -8.30982,-6.77253 -2.5421,-0.0247 -3.52729,0.52974 -4.41908,2.487 -1.00692,2.20994 -0.81015,2.87107 1.60473,5.39166 1.51381,1.58007 3.9524,3.11494 5.41908,3.41082 4.13163,0.83348 8.8216,5.6579 9.40898,9.67872 1.43167,9.80026 -5.83234,14.86713 -14.04304,9.79545 z m 29.61763,-0.51311 c -5.45234,-3.38226 -9.57018,-15.89786 -6.92446,-21.04591 0.49082,-0.95504 1.36004,-2.92755 1.9316,-4.38337 2.16604,-5.51708 13.55126,-10.94358 14.90278,-7.10306 0.29027,0.82484 -0.60884,1.25 -2.64345,1.25 -6.35061,0 -8.82375,6.40754 -7.83062,20.28792 0.6329,8.8456 2.80698,11.26701 9.22161,10.27069 4.67591,-0.72626 6.338,-2.5327 7.18102,-7.80471 0.62293,-3.89557 1.66658,-5.29101 3.23307,-4.32287 0.48862,0.30199 -0.0244,3.02703 -1.14008,6.05565 -1.50137,4.07569 -2.81156,5.89725 -5.04204,7.00996 -3.936,1.96353 -9.52857,1.87055 -12.88943,-0.2143 z m -3.13375,-11.46984 c -0.31922,-0.79773 -0.55618,-0.56078 -0.60416,0.60417 -0.0434,1.05416 0.19293,1.64479 0.52522,1.3125 0.33229,-0.3323 0.36781,-1.1948 0.0789,-1.91667 z m 29.61274,11.78492 c 0.19845,-0.60358 1.35054,-1.24285 2.56022,-1.42061 2.15877,-0.31721 2.19428,-0.57592 1.92167,-14 -0.27061,-13.32555 -0.33553,-13.68502 -2.52774,-13.99636 -1.2375,-0.17575 -2.25,-0.73825 -2.25,-1.25 0,-0.51175 3.6,-0.93045 8,-0.93045 4.66667,0 8,0.41667 8,1 0,0.55 -1.125,1 -2.5,1 -2.26147,0 -2.50793,0.4055 -2.58313,4.25 -0.0876,4.4776 -0.068,21.36772 0.0273,23.5 0.0307,0.6875 1.18084,1.25 2.55584,1.25 1.375,0 2.5,0.45003 2.5,1.00007 0,0.59643 -3.24203,0.93846 -8.03247,0.84742 -5.32379,-0.10117 -7.91081,-0.52272 -7.67168,-1.25007 z m 20.9569,0.15258 c 0.23069,-0.6875 1.13643,-1.25574 2.01276,-1.26275 0.87633,-0.007 1.92267,-0.3421 2.3252,-0.74462 1.04947,-1.04947 1.30925,-23.80731 0.30241,-26.49263 -0.48148,-1.28415 -1.68744,-2.25 -2.80935,-2.25 -1.08116,0 -2.24385,-0.45 -2.58377,-1 -0.40174,-0.65004 4.7407,-1 14.69422,-1 h 15.31226 l -0.003,5.49432 c -0.002,3.02188 -0.38191,5.60938 -0.84472,5.75 -0.46281,0.14063 -1.81281,-1.76932 -3,-4.24432 l -2.15876,-4.5 h -5.5 -5.5 l -0.2768,14.14283 -0.27681,14.14283 3.02681,1.05515 c 1.66474,0.58033 3.0268,1.30356 3.0268,1.60717 0,0.30361 -4.0875,0.55202 -9.08333,0.55202 -6.82369,0 -8.979,-0.31096 -8.66392,-1.25 z m 19.99725,0.61143 c -0.6875,-0.29045 -1.25,-0.96032 -1.25,-1.4886 0,-0.52828 0.5625,-0.88746 1.25,-0.79818 3.37521,0.43829 4.449,-0.43357 6.25,-5.07465 1.06715,-2.75 2.31269,-5 2.76786,-5 0.45517,0 0.6936,2.8125 0.52986,6.25 l -0.29772,6.25 -4,0.19476 c -2.2,0.10712 -4.5625,-0.0429 -5.25,-0.33333 z m 16.44385,-9.1e-4 c -1.12352,-1.12353 0.34699,-2.36052 2.80615,-2.36052 1.31008,0 2.71379,-0.5369 3.11935,-1.19311 0.79094,-1.27977 0.61129,-21.18796 -0.21653,-23.99408 -0.27375,-0.92795 -1.82637,-2.2753 -3.45027,-2.99411 -4.29464,-1.90099 -3.63212,-2.8187 2.03491,-2.8187 4.78633,0 5.09403,0.17138 7.6305,4.25 5.27622,8.48412 11.54656,17.75 12.01166,17.75 0.26181,0 0.38556,-3.2625 0.27499,-7.25 -0.20608,-7.43187 -1.38776,-11.66129 -3.31513,-11.86535 -0.59921,-0.0634 -1.72574,-0.17594 -2.50339,-0.25 -0.77765,-0.0741 -1.60889,-0.71585 -1.84719,-1.4262 -0.33452,-0.99719 1.52614,-1.25295 8.16392,-1.12218 4.72845,0.0931 8.59718,0.56185 8.59718,1.04155 0,0.4797 -0.86786,0.87218 -1.92857,0.87218 -4.42399,0 -5.07143,2.24324 -5.07143,17.57143 0,7.93571 -0.3375,14.40863 -0.75,14.38426 -0.71585,-0.0423 -11.79592,-16.67479 -15.52341,-23.30247 -1.76875,-3.14494 -1.77269,-3.12311 -1.5,8.31115 l 0.27341,11.46438 3.25,0.93028 c 1.7875,0.51166 3.25,1.31519 3.25,1.78563 0,0.98187 -14.33794,1.18407 -15.30615,0.21586 z m 40.03405,-0.17441 c -1.66296,-0.32025 -1.66418,-0.48539 -0.0242,-3.26172 0.95011,-1.60841 2.02797,-2.92439 2.39524,-2.92439 0.36726,0 0.95243,-0.7875 1.30037,-1.75 1.01181,-2.79897 2.70438,-5.25443 9.35068,-13.56551 3.4375,-4.29853 6.25,-8.23603 6.25,-8.75 0,-0.51397 -2.21,-0.93449 -4.9111,-0.93449 -4.2564,0 -5.2563,0.41018 -7.5,3.07673 -1.4239,1.69219 -2.58889,3.91564 -2.58889,4.94098 0,1.02534 -0.45,2.14237 -1,2.48229 -0.62921,0.38887 -1.00065,-1.90669 -1.00175,-6.19098 l -0.002,-6.80902 13.04694,0.30621 13.0469,0.30621 -3.1539,4.19379 c -1.7346,2.30658 -4.6912,6.44379 -6.5705,9.19379 -1.8792,2.75 -5.6553,7.67768 -8.3913,10.95039 -2.7361,3.27272 -4.97464,6.31022 -4.97464,6.75 0,1.27953 11.34704,0.85908 13.01374,-0.48219 2.4598,-1.97959 4.9862,-6.48034 4.9862,-8.88302 0,-1.5668 0.3152,-1.91993 1.0543,-1.18093 0.5798,0.57984 0.9173,3.70734 0.75,6.95 l -0.304,5.89575 -11.5102,0.0117 c -6.3306,0.006 -12.29848,-0.14008 -13.26189,-0.32562 z m 33.77439,-0.0172 c -1.282,-1.28191 -0.2348,-2.16891 2.5605,-2.16891 h 3.0628 l -0.3128,-14.25 -0.3128,-14.25 -3.5,-0.50646 c -6.3274,-0.9156 -1.722,-1.79538 12.7523,-2.43611 l 14.2477,-0.6307 0.15,4.53663 c 0.082,2.49515 0.195,5.06164 0.25,5.70331 0.1952,2.27708 -2.171,1.88203 -2.7589,-0.46063 -1.2038,-4.79638 -4.4853,-7.70604 -8.6906,-7.70604 -5.8355,0 -6.7972,2.17492 -6.8539,15.5 -0.06,14.13694 0.064,14.5 4.9708,14.5 2.1629,0 3.9326,0.4641 3.9326,1.03133 0,0.56722 -1.4625,1.02299 -3.25,1.01281 -1.7875,-0.0102 -6.0615,0.12676 -9.4977,0.3043 -3.4363,0.17754 -6.4738,0.0968 -6.75,-0.17948 z m 20.4977,-0.77499 c 0,-0.33334 1.1013,-1.47235 2.4473,-2.53113 1.454,-1.14372 2.7731,-3.55661 3.25,-5.94489 0.4415,-2.21091 1.2527,-3.99361 1.8027,-3.96155 1.3901,0.081 1.4953,11.36802 0.1145,12.27834 -1.3428,0.88521 -7.6145,1.01637 -7.6145,0.15923 z m 62.1368,-0.28818 c -1.1508,-0.72914 -1.1508,-0.93501 0,-1.32193 0.7498,-0.25207 2.1887,-0.24411 3.1977,0.0177 1.4273,0.37031 1.5383,0.6638 0.5,1.32193 -1.6645,1.05514 -2.0069,1.0535 -3.6977,-0.0177 z m 10.8146,0.0959 c -5.499,-0.46234 -6.8753,-4.03286 -7.1923,-18.6582 -0.2507,-11.56926 -0.3339,-11.97417 -2.5681,-12.5 -5.0864,-1.1971 -1.8618,-2.53876 5.8224,-2.42256 4.3966,0.0665 7.8797,0.50786 7.7402,0.98084 -0.1395,0.47299 -0.7036,0.91255 -1.2536,0.97681 -0.55,0.0643 -1.5625,0.18538 -2.25,0.26916 -1.5453,0.1883 -1.7788,23.63125 -0.2748,27.58721 2.2819,6.00176 12.1153,0.93007 13.6063,-7.01758 1.1515,-6.13782 2.3074,-4.64737 2.3074,2.97513 v 7.44181 l -6.1945,0.33287 c -3.4069,0.18308 -7.7913,0.19861 -9.743,0.0345 z m 23.2914,-1.42995 c 0.2252,-0.67556 1.5002,-1.23806 2.8333,-1.25 l 2.4239,-0.0217 0.2793,-13.92285 c 0.2827,-14.08806 -0.3958,-16.97024 -3.4067,-14.47139 -1.2932,1.07321 -2.8918,-0.45671 -1.9944,-1.90869 0.7595,-1.2289 15.3503,-1.44531 16.0961,-0.23873 0.3643,0.58959 -0.2243,1.04166 -1.3563,1.04166 -1.1,0 -2.2311,0.37393 -2.5135,0.83095 -0.2825,0.45702 -0.7211,6.95123 -0.9747,14.43159 l -0.461,13.60064 2.7291,0.95137 c 6.3797,2.22401 12.13,-1.20384 13.4986,-8.04685 1.0262,-5.13106 3.0356,-2.70233 2.7178,3.28498 -0.1582,2.98029 -0.5002,5.76264 -0.76,6.18301 -0.2598,0.42037 -7.0083,0.76431 -14.9967,0.76431 -11.0381,0 -14.426,-0.29482 -14.1148,-1.22831 z m 40.7572,0.11168 c 0,-0.61415 0.8361,-0.89799 1.858,-0.63076 1.0218,0.26722 2.5968,0.0724 3.5,-0.43306 1.4054,-0.78653 1.642,-3.01663 1.642,-15.47765 v -14.55872 l -2.75,0.67917 c -3.7176,0.91814 -4.4442,1.79534 -5.1661,6.2368 -0.3925,2.41482 -1.1586,3.80085 -2.1009,3.80085 -1.1741,0 -1.4088,-1.14561 -1.1268,-5.5 0.1959,-3.025 0.5777,-5.8661 0.8483,-6.31355 0.7061,-1.16745 18.3621,-0.35023 18.0836,0.83701 -0.1259,0.5371 -0.7702,0.85227 -1.4316,0.70038 -1.4196,-0.32601 -2.1339,11.39817 -1.3565,22.26697 0.4289,5.99636 0.7845,7.04148 2.5,7.34706 1.1,0.19594 2.4275,0.76258 2.95,1.25919 0.5688,0.54066 -2.7412,0.90294 -8.25,0.90294 -6.1073,0 -9.2,-0.37537 -9.2,-1.11663 z m 34.7298,0.51313 c -1.2289,-1.22895 0.3454,-2.3965 3.2314,-2.3965 h 2.8431 l -0.064,-7.0377 c -0.036,-3.93269 0.4277,-7.52986 1.051,-8.1532 0.8002,-0.80025 0.8135,-1.67976 0.047,-3.11215 -0.5877,-1.09816 -0.8039,-3.92778 -0.4804,-6.28805 0.5038,-3.6755 0.3064,-4.38084 -1.3756,-4.91469 -2.7031,-0.85793 -3.3625,-0.2652 -5.5172,4.96 -1.0311,2.50018 -2.2559,4.54579 -2.7219,4.54579 -0.466,0 -0.7112,-2.3625 -0.545,-5.25 l 0.3023,-5.25 12.75,-0.27988 12.75,-0.27987 v 6.08889 c 0,6.8825 -0.9342,7.05014 -3.3941,0.60906 -1.1007,-2.8822 -2.4486,-4.62531 -3.8625,-4.99506 -2.8664,-0.74956 -3.8381,0.9726 -3.3046,5.85686 0.2402,2.2 0.4648,8.35761 0.499,13.68358 0.062,9.59181 0.086,9.68657 2.5933,10 1.3921,0.17403 2.5198,0.76642 2.506,1.31642 -0.028,1.12141 -16.2425,1.9613 -17.3073,0.8965 z m 28.2702,-0.783 c 0,-1.12936 0.9084,-1.6135 3.0275,-1.6135 h 3.0274 l -0.2774,-14.25 -0.2775,-14.25 -2.75,-0.31642 c -5.8979,-0.67863 -2.3267,-2.19105 5.5,-2.32923 4.5375,-0.0801 11.0619,-0.1926 14.4988,-0.25 l 6.2487,-0.10435 v 5.75 c 6e-4,3.16749 -0.4479,5.75 -0.9988,5.75 -0.55,0 -1,-0.74502 -1,-1.65561 0,-0.91058 -1.1654,-3.18359 -2.5899,-5.05112 -2.3774,-3.11701 -2.9721,-3.37081 -7.25,-3.09439 l -4.6588,0.30112 -0.2957,6.75 c -0.2653,6.05753 -0.1017,6.75 1.595,6.75 2.2689,0 5.2007,-3.00396 5.2007,-5.32874 0,-0.91919 0.45,-1.67126 1,-1.67126 0.5839,0 1,3.35301 1,8.05902 0,5.11803 -0.3649,7.83347 -1,7.44098 -0.55,-0.33992 -1,-1.42173 -1,-2.40403 0,-2.41453 -3.1377,-5.09597 -5.9631,-5.09597 -2.2367,0 -2.2906,0.21023 -1.8022,7.0357 0.2768,3.86964 0.7988,7.33118 1.16,7.69231 0.3611,0.36113 2.8653,0.65661 5.5649,0.65661 5.5901,0 8.4225,-2.41343 9.5055,-8.09954 1.1681,-6.13288 2.5349,-4.56566 2.5343,2.9059 l -7e-4,7.30902 -9.7493,-0.18867 c -5.3622,-0.10376 -10.6494,-0.23461 -11.7494,-0.29076 -1.1,-0.0562 -3.4625,0.19232 -5.25,0.55217 -2.5942,0.52223 -3.25,0.32866 -3.25,-0.95924 z m 37.2621,0.0851 c 0.217,-0.65921 1.3295,-1.33681 2.4722,-1.50579 2.8028,-0.41446 3.1153,-2.60069 2.3864,-16.69277 -0.532,-10.28536 -0.8517,-11.96239 -2.2373,-11.7368 -0.8891,0.14476 -2.1817,-0.41774 -2.8724,-1.25 -1.1079,-1.3349 0,-1.5132 9.4435,-1.5132 10.4923,0 10.7559,0.0566 13.6224,2.92308 4.2081,4.20812 3.9976,8.24969 -0.5769,11.07692 -3.658,2.26077 -4.5388,4 -2.0257,4 2.0435,0 4.5257,5.1833 4.5257,9.45034 0,4.32087 1.8202,4.69843 2.65,0.54966 0.33,-1.65 0.9672,-3 1.416,-3 3.1304,0 0.5708,7.80208 -2.8405,8.65826 -3.7226,0.9343 -6.2255,-2.13014 -6.2255,-7.62212 0,-5.76527 -1.4932,-7.81064 -6,-8.21901 l -3.5,-0.31713 -0.1714,5 c -0.2266,6.6079 0.3399,8.31045 2.8904,8.68664 1.1684,0.17235 2.2861,0.8054 2.4838,1.40678 0.2384,0.72527 -2.3669,1.12882 -7.7378,1.19856 -5.8828,0.0764 -7.9895,-0.22266 -7.7029,-1.09342 z m 19.7379,-18.41952 c 0.275,-0.24516 0.5,-2.69452 0.5,-5.44302 0,-3.60645 -0.4874,-5.35367 -1.7512,-6.27777 -1.9275,-1.40944 -6.8262,-0.89356 -7.9835,0.84074 -0.8606,1.28963 -1.0267,11.00625 -0.2022,11.83069 0.6016,0.60163 8.5994,-0.20404 9.4369,-0.95064 z m 18,17.28266 c 0,-0.94799 0.9374,-1.37409 2.75,-1.25 l 2.75,0.18826 v -14 -14 l -2.5,-0.33468 c -2.5001,-0.33468 -5.3174,-2.13153 -3.45,-2.20031 0.5225,-0.0192 7.25,-0.12097 14.95,-0.22606 l 14,-0.19108 0.306,5.93177 c 0.3059,5.92911 0.3052,5.93093 -1.75,4.07108 -1.1308,-1.02338 -2.056,-2.62121 -2.056,-3.55072 0,-2.98294 -3.3522,-5 -8.3097,-5 -4.0037,0 -4.7247,0.31365 -5.1725,2.25 -0.4198,1.81572 -0.2452,6.81941 0.3807,10.91352 0.056,0.36493 1.3308,0.33474 2.8333,-0.0671 1.9278,-0.51558 3.0005,-1.66733 3.6447,-3.91351 1.6006,-5.58091 2.6235,-3.44273 2.6235,5.48375 0,9.16014 -0.1973,9.44959 -2.8375,4.16245 -1.219,-2.44107 -2.3294,-3.32912 -4.1625,-3.32912 -2.191,0 -2.5399,0.48897 -2.8226,3.956 -0.1775,2.17579 -0.041,5.46002 0.3043,7.29828 l 0.627,3.34228 5.6957,-0.29828 5.6956,-0.29828 2.7376,-5.40431 c 1.5057,-2.97237 2.9682,-5.63487 3.25,-5.91666 0.2818,-0.2818 0.5124,2.71264 0.5124,6.6543 v 7.16668 h -15 c -12.3805,0 -15,-0.25117 -15,-1.43826 z m 65.3268,-0.0617 c 0.1801,-0.55 1.5424,-1.14356 3.0274,-1.31903 l 2.6999,-0.31903 -0.2771,-14.18097 c -0.2705,-13.84872 -0.3297,-14.18846 -2.527,-14.50052 -2.046,-0.29058 -3.2793,-2.11972 -1.5,-2.2247 7.5636,-0.44627 17.2507,-0.28103 17.2504,0.29425 -2e-4,0.4125 -1.0354,0.75 -2.3004,0.75 -4.2445,0 -4.7,1.5746 -4.7,16.24772 v 13.84771 l 6.1874,-0.29771 c 6.1787,-0.2973 6.1904,-0.30369 8.25,-4.50105 1.1345,-2.31183 2.4001,-4.22433 2.8126,-4.25 0.4125,-0.0257 0.75,2.37208 0.75,5.32833 0,4.88149 -0.2066,5.38303 -2.25,5.46247 -16.5947,0.64512 -27.7002,0.50845 -27.4232,-0.33747 z m 37.1722,0.66569 c -1.0938,-1.09383 -0.3857,-2.04269 1.751,-2.34614 2.211,-0.31401 2.25,-0.56238 2.25,-14.31955 0,-13.75717 -0.039,-14.00554 -2.25,-14.31955 -1.2375,-0.17575 -2.25,-0.73825 -2.25,-1.25 0,-1.03628 17.3054,-1.10419 20.5822,-0.0808 1.1453,0.35768 3.5384,2.31962 5.3181,4.35987 2.517,2.88542 3.3609,4.9207 3.7985,9.16108 0.7453,7.22093 0.038,9.56861 -4.2553,14.12062 -3.8219,4.05239 -3.0814,3.86146 -18.6945,4.82028 -3.163,0.19425 -5.9755,0.12862 -6.25,-0.14584 z m 20.3509,-4.23495 c 3.4504,-3.7036 4.3069,-15.22633 1.6113,-21.67781 -1.8781,-4.49495 -2.9304,-5.21799 -7.6224,-5.23762 l -3.6612,-0.0153 -0.3388,6.25 c -0.1863,3.4375 -0.1801,9.9625 0.014,14.5 l 0.3526,8.25 h 3.8585 c 2.6137,0 4.4803,-0.66753 5.7862,-2.06926 z m 44.1876,3.61439 c -1.1004,-1.32579 -0.9151,-1.54513 1.3049,-1.54513 1.5034,0 3.0063,-0.783 3.5875,-1.86907 1.4642,-2.73587 9.0701,-25.92796 9.0701,-27.65675 0,-0.8108 0.9,-1.47418 2,-1.47418 1.4056,0 2.0018,0.66872 2.0062,2.25 0,1.2375 0.6783,3.53894 1.5,5.11431 0.8216,1.57537 1.494,3.60037 1.4943,4.5 3e-4,0.89963 0.9003,4.00302 2,6.89642 1.0997,2.8934 1.9995,6.2909 1.9995,7.55 0,2.91074 1.7707,4.68927 4.6686,4.68927 1.6328,0 2.1028,0.43202 1.6772,1.54133 -0.471,1.22737 -2.027,1.48199 -7.6387,1.25 -4.5287,-0.18722 -7.1948,-0.73804 -7.4604,-1.54133 -0.2435,-0.73624 0.4558,-1.25 1.7014,-1.25 5.342,0 3.2043,-7.37362 -2.445,-8.43344 -4.6107,-0.86498 -6.5031,0.60626 -6.5031,5.05588 0,2.75593 0.3834,3.37756 2.0833,3.37756 1.2199,0 1.9125,0.51805 1.671,1.25 -0.647,1.96151 -11.1319,2.20485 -12.7168,0.29513 z m 17.3808,-14.94861 c -1.8784,-8.6409 -3.3772,-9.26174 -5.2879,-2.19037 -1.2949,4.79249 -0.9183,5.48249 2.9327,5.37299 2.8529,-0.0811 2.9894,-0.26554 2.3552,-3.18262 z m 20.2756,15.764 c -1.1335,-1.13349 0.3559,-2.36056 2.8651,-2.36056 h 2.441 v -14.5 -14.5 h -3 c -1.65,0 -3,-0.36562 -3,-0.8125 0,-0.44687 4.9631,-0.73796 11.0292,-0.64687 10.0395,0.15077 11.2509,0.37393 13.5,2.48681 3.3115,3.11095 3.2489,7.34691 -0.155,10.50157 -3.4226,3.17192 -4.3547,2.43909 -3.0613,-2.40665 1.5231,-5.70652 -0.8493,-9.12236 -6.336,-9.12236 h -3.9769 v 7 7 h 4.5988 c 3.8551,0 5.0679,0.50222 7.5,3.10576 2.2903,2.45174 2.9012,4.03109 2.9012,7.5 0,4.76315 1.6678,6.07794 2.1836,1.72136 0.4487,-3.79071 2.8164,-4.26606 2.8164,-0.56544 0,3.32299 -2.6667,6.23832 -5.7063,6.23832 -2.9292,0 -4.2107,-2.00544 -4.8569,-7.60089 -1.0474,-9.06749 -0.9809,-8.95594 -5.4467,-9.13403 l -4.0791,-0.16266 0.2945,6.69879 c 0.2849,6.4806 0.3841,6.7091 3.0445,7.01521 3.7092,0.42679 3.6659,3.18358 -0.05,3.18358 -1.54,0 -3.34,-0.54 -4,-1.2 -0.9333,-0.93333 -1.4667,-0.93333 -2.4,0 -1.268,1.26799 -6.0236,1.6431 -7.1061,0.56052 z m 42.5777,-1.61052 c 0.241,-0.6875 1.6285,-1.12047 3.0833,-0.96215 l 2.6451,0.28781 v -11.91285 c 0,-6.55207 0.2813,-13.3191 0.625,-15.03785 0.5719,-2.85945 0.4039,-3.125 -1.9769,-3.125 -2.9527,0 -5.0785,2.71255 -6.1511,7.84884 -1.0622,5.08656 -2.6628,2.33854 -2.3042,-3.95605 l 0.3072,-5.39279 10.9812,-0.19384 c 6.0397,-0.10661 11.7772,-0.40198 12.75,-0.65638 1.4144,-0.36985 1.771,0.16994 1.7798,2.69384 0.01,1.73601 0.3058,4.95638 0.6662,7.15638 0.5979,3.65043 0.5096,3.88006 -1.011,2.62756 -0.9164,-0.75485 -1.6662,-2.24693 -1.6662,-3.31575 0,-3.59647 -1.9193,-5.81181 -5.0352,-5.81181 -2.6539,0 -2.9772,0.34075 -3.0832,3.25 -0.065,1.7875 -0.012,3.7 0.1173,4.25 0.1297,0.55 0.2409,4.6 0.2472,9 0.012,8.61391 0.9947,12.68819 2.9965,12.42706 2.5481,-0.33239 3.8591,0.0994 3.2574,1.07294 -0.9592,1.55198 -18.7745,1.30765 -18.2284,-0.25 z m 29.7284,-0.29388 c 0,-0.84911 0.5625,-1.47079 1.25,-1.38151 3.6549,0.47461 3.75,0.12046 3.75,-13.96624 V 183.2316 l -2.5,-0.62746 c -4.6307,-1.16223 -2.5484,-2.58824 4,-2.73936 3.575,-0.0825 6.95,-0.195 7.5,-0.25 2.0614,-0.20614 1.0244,1.92207 -1.191,2.44421 -2.2246,0.52433 -2.3163,0.9489 -2.5081,11.61688 -0.2314,12.86419 0.4763,16.46386 3.5046,17.82604 3.9766,1.78876 2.3037,2.51287 -5.8055,2.51287 -6.5454,0 -8,-0.28071 -8,-1.54384 z m 20.1052,0.17059 c -1.6702,-2.01249 -0.2566,-4.62675 2.5018,-4.62675 1.9922,0 2.393,0.50243 2.393,3 0,2.26812 -0.458,3 -1.8776,3 -1.0326,0 -2.3904,-0.61796 -3.0172,-1.37325 z m -684.10519,-6.55532 c 0,-1.99804 -2.02567,-4.55706 -4.23214,-5.34645 -0.82501,-0.29516 -0.30732,-1.22492 1.48214,-2.66187 1.5125,-1.21455 2.75,-2.85061 2.75,-3.63569 0,-0.78508 0.45,-1.42742 1,-1.42742 0.57778,0 1,3.16667 1,7.5 0,4.33333 -0.42222,7.5 -1,7.5 -0.55,0 -1,-0.86786 -1,-1.92857 z m 109.50049,-0.48827 c -0.2753,-0.87074 -0.7114,-2.25816 -0.9691,-3.08316 -0.2578,-0.825 -1.3686,-1.5 -2.4686,-1.5 -2.4836,0 -1.7527,-2.58631 0.929,-3.2876 1.1444,-0.29926 1.9786,-1.58024 2.1808,-3.34854 0.1982,-1.73347 0.9195,-2.86386 1.8274,-2.86386 1.2026,0 1.4915,1.47334 1.4573,7.4309 -0.028,4.88065 -0.4569,7.56895 -1.2495,7.83316 -0.6637,0.22124 -1.432,-0.31017 -1.7073,-1.1809 z m 117.5275,-1.00957 c -0.5654,-1.48708 -1.028,-3.07571 -1.028,-3.53028 0,-0.45457 -1.1434,-1.11347 -2.5409,-1.46422 -2.7808,-0.69795 -2.4345,-2.57909 0.4749,-2.57909 1.2178,0 2.0137,-0.98826 2.416,-3 0.3565,-1.78243 1.2281,-3 2.1475,-3 1.2886,0 1.4913,1.25114 1.2117,7.4799 -0.3747,8.34888 -1.1521,10.11566 -2.6812,6.09369 z m 243.972,-2.49018 c 0,-1.05413 -1.2375,-2.82059 -2.75,-3.92548 l -2.75,-2.00888 2.75,-1.04978 c 1.7113,-0.65327 2.75,-1.79222 2.75,-3.0155 0,-1.08116 0.45,-2.24385 1,-2.58377 0.633,-0.3912 1,2.15628 1,6.94098 0,4.37268 -0.4215,7.55902 -1,7.55902 -0.55,0 -1,-0.86247 -1,-1.91659 z m -520.74999,-5.2273 c -0.6875,-0.69086 -1.25,-2.22137 -1.25,-3.40112 0,-1.17976 -0.9,-2.9595 -2,-3.95499 -2.64942,-2.39769 -2.64802,-4.90272 0.002,-4.20963 1.24118,0.32457 2.35309,-0.1031 2.92499,-1.12504 1.58261,-2.82796 2.17632,-0.67716 1.86889,6.77035 -0.23715,5.7451 -0.54557,6.92599 -1.54624,5.92043 z m 319.43669,-2.5898 c -0.6811,-1.15596 -2.0391,-7.49612 -2.0918,-9.76631 -0.031,-1.32366 0.7062,-2.10806 2.1793,-2.31955 2.0896,-0.3 2.2258,0.0481 2.2258,5.69098 0,5.39592 -1.1039,8.44754 -2.3133,6.39488 z m -35.9958,-5.24349 c -0.9951,-2.15907 -2.6826,-4.20278 -3.75,-4.54159 -3.472,-1.10196 -2.0494,-2.48123 2.5591,-2.48123 h 4.5 v 5.5 c 0,3.025 -0.3375,5.48839 -0.75,5.4742 -0.4125,-0.0142 -1.5641,-1.79231 -2.5591,-3.95138 z m 245.5694,1.72718 c -0.5415,-0.6875 -1.2769,-2.47451 -1.6342,-3.97114 -0.3574,-1.49662 -1.6052,-3.23249 -2.773,-3.85748 -1.6976,-0.90852 -1.8456,-1.31223 -0.7382,-2.01355 0.7618,-0.48246 2.6226,-0.8841 4.1351,-0.89252 2.3659,-0.0132 2.75,0.38628 2.75,2.85969 0,1.58125 0.2813,4.28125 0.625,6 0.6439,3.21932 -0.5563,4.17094 -2.3647,1.875 z M 58.676966,132.31002 c -7.413755,-0.31538 -8.765448,-0.62861 -8.5,-1.96968 0.250153,-1.2638 1.767997,-1.61861 7.315642,-1.71011 l 7,-0.11545 0.261918,-38.938081 c 0.144054,-21.41594 -0.126644,-39.32664 -0.601553,-39.80155 -0.474908,-0.47491 -4.078535,-0.95277 -8.008058,-1.06192 -6.533624,-0.18148 -7.144919,-0.37854 -7.148448,-2.30447 -0.0038,-2.08756 0.213014,-2.10509 24.730876,-2 22.712331,0.0974 24.762419,0.24911 25.073324,1.85602 0.298032,1.54039 -0.553895,1.75 -7.11229,1.75 -5.707801,0 -7.771953,0.38655 -8.823324,1.65229 -1.09816,1.32208 -1.431515,9.24707 -1.668013,39.65443 -0.162562,20.901181 0.06244,38.350761 0.5,38.776841 1.308594,1.27426 18.44237,1.85885 23.39932,0.79836 3.04693,-0.65185 5.62985,-2.06653 7.6381,-4.18342 3.5528,-3.745 7.94485,-15.23133 9.63519,-25.198501 0.73091,-4.30983 1.6552,-6.96157 2.40505,-6.9 0.66985,0.055 1.7258,0.1675 2.34656,0.25 0.80991,0.10764 0.92731,3.25656 0.41572,11.150001 -0.39212,6.05 -0.33751,11.00225 0.12134,11.005 0.45886,0.003 0.97767,3.76719 1.1529,8.36542 0.38484,10.09802 1.16302,9.65836 -16.18652,9.1451 -22.359275,-0.66146 -37.100003,-0.77127 -41.132092,-0.30641 -2.2,0.25364 -7.967039,0.2924 -12.815642,0.0861 z m 66.146854,-8.14442 c 0.25642,-1.80292 -0.0823,-2.2499 -1.5,-1.97957 -1.01731,0.19398 -1.97842,1.38422 -2.16242,2.67793 -0.25642,1.80292 0.0823,2.2499 1.5,1.97957 1.01731,-0.19398 1.97842,-1.38422 2.16242,-2.67793 z m -50.831212,-3.0918 c 0,-0.51754 -0.45,-1.2191 -1,-1.55902 -0.55,-0.33992 -1,0.0835 -1,0.94098 0,0.85746 0.45,1.55902 1,1.55902 0.55,0 1,-0.42344 1,-0.94098 z m 1.8,-12.25902 c 1.636975,-1.63698 1.511927,-4.46632 -0.226887,-5.13357 -1.485492,-0.57004 -2.847356,0.66333 -3.848977,3.4858 -1.0028,2.8258 1.774887,3.94875 4.075864,1.64777 z m -0.3,-20.800001 c -0.339919,-0.55 -1.041476,-1 -1.559017,-1 -0.517541,0 -0.940983,0.45 -0.940983,1 0,0.55 0.701558,1 1.559017,1 0.857459,0 1.280902,-0.45 0.940983,-1 z m 58.500002,42.661041 c 0,-0.94239 1.78624,-1.56559 5.62205,-1.96148 3.74959,-0.38699 6.37049,-1.28338 7.86927,-2.6914 2.97699,-2.79674 6.27523,-9.54639 7.08945,-14.50816 0.36102,-2.2 1.32392,-5.575 2.13978,-7.5 2.51189,-5.926781 3.04749,-7.346631 4.5267,-12.000001 4.14876,-13.05143 9.09336,-27.70495 9.85854,-29.2162 0.47792,-0.94392 1.28493,-3.41892 1.79334,-5.5 0.8559,-3.50342 2.13274,-7.44898 4.21792,-13.0338 1.0056,-2.69334 4.70805,-3.03127 5.47807,-0.5 0.2928,0.9625 1.15947,3.1 1.92596,4.75 0.76648,1.65 2.38216,6.4875 3.5904,10.75 1.20823,4.2625 2.57743,7.75 3.04266,7.75 0.46522,0 0.84586,1.24988 0.84586,2.7775 0,1.52762 0.63782,3.6881 1.41737,4.80107 0.77955,1.11296 1.73056,3.69306 2.11336,5.73354 0.3828,2.04049 1.09498,3.95657 1.58263,4.25795 0.48765,0.30139 0.88664,1.67549 0.88664,3.05358 0,2.16261 1.13113,5.50108 5.04035,14.876361 0.45867,1.1 1.13172,3.125 1.49567,4.5 0.36394,1.375 1.75206,4.85542 3.0847,7.73427 1.33264,2.87885 2.70144,6.62655 3.04178,8.32822 0.75741,3.78706 3.52043,5.0137 10.35431,4.59677 4.34778,-0.26525 4.98319,-0.06 4.98319,1.60999 0,1.8185 -0.79557,1.89827 -15.94288,1.59859 -8.76858,-0.17348 -16.26858,0.0103 -16.66667,0.40837 -0.39808,0.39809 -3.34878,0.72379 -6.55712,0.72379 -4.43776,0 -5.83333,-0.34802 -5.83333,-1.45469 0,-1.44912 2.90674,-2.25878 10,-2.78544 3.38238,-0.25114 3.49248,-0.38697 3.27616,-4.04216 -0.12311,-2.08026 -1.58561,-6.57356 -3.25,-9.98511 -1.66439,-3.41155 -3.02616,-7.39888 -3.02616,-8.86072 0,-3.41849 -1.03339,-3.7257 -9.49929,-2.82401 -7.93779,0.84544 -13.75627,0.21303 -13.20105,-1.43483 0.20626,-0.61217 2.36072,-1.113041 4.78768,-1.113041 2.42696,0 4.86266,-0.29351 5.41266,-0.65225 0.55,-0.35874 3.17268,-0.50504 5.82817,-0.32511 3.38736,0.22952 4.69823,-0.0235 4.39276,-0.84775 -1.06108,-2.86315 -6.64586,-19.84173 -8.73885,-26.56739 -1.98262,-6.37102 -2.47175,-7.15832 -3.53982,-5.69764 -0.68163,0.93218 -1.54573,3.32813 -1.92021,5.32432 -0.71932,3.83428 -8.92827,27.56078 -10.54624,30.482031 -0.89905,1.62322 -1.73576,4.57858 -4.13298,14.59807 -1.10023,4.59856 -0.0168,8.96655 2.80501,11.30842 0.78797,0.65395 4.22705,1.45637 7.64241,1.78315 3.41536,0.32678 6.20975,1.04415 6.20975,1.59415 0,0.62376 -7.43076,1.10201 -19.75,1.27114 -16.26502,0.2233 -19.75,0.0274 -19.75,-1.1101 z m 258.41927,0.20833 c -0.31355,-0.50733 -1.09865,-0.83831 -1.74468,-0.73552 -4.00735,0.63761 -10.67459,-6.10914 -10.67459,-10.80188 0,-1.06259 -0.49033,-2.4223 -1.08962,-3.02159 -0.64487,-0.64487 -1.15508,-5.96998 -1.25,-13.04638 -0.1134,-8.454241 -0.56165,-12.440231 -1.53021,-13.607221 -2.06093,-2.48316 -10.6388,-4.65678 -18.3773,-4.65678 h -6.88414 l 0.21018,14.33173 c 0.26469,18.048891 1.25951,25.711341 3.55615,27.390681 0.98645,0.72132 4.53041,1.27759 8.1394,1.27759 4.63093,0 6.27868,0.34058 5.98018,1.23608 -0.31278,0.93835 -6.17384,1.21795 -24.33333,1.1608 -13.15672,-0.0414 -23.80881,-0.37264 -23.67131,-0.73608 0.1375,-0.36344 0.25,-1.09186 0.25,-1.61871 0,-0.53313 2.86388,-0.86572 6.45824,-0.75 8.2034,0.26409 10.07194,-1.25461 9.93028,-8.07112 -0.054,-2.59653 -0.33753,-19.570971 -0.63015,-37.720971 -0.29263,-18.15 -0.85612,-33.7875 -1.2522,-34.75 -0.58669,-1.4257 -1.98659,-1.75 -7.55414,-1.75 -6.79312,0 -9.06035,-0.91844 -6.69102,-2.7105 1.86801,-1.41288 43.17005,-1.65844 50.78079,-0.30191 23.54733,4.19703 33.55531,22.39473 19.24412,34.99194 -2.51599,2.21466 -6.19709,4.44511 -8.18022,4.95656 -1.98314,0.51144 -5.1807,1.32432 -7.1057,1.80639 l -3.5,0.87648 3.86596,1.85949 c 4.94682,2.37937 9.57749,7.16432 12.9758,13.40814 2.69651,4.954381 3.75741,8.863431 5.79796,21.363411 0.97617,5.97987 1.35566,6.75 3.3261,6.75 4.18915,0 6.03418,-3.47199 6.03418,-11.35512 0,-3.92968 0.36859,-7.71472 0.8191,-8.41119 1.63769,-2.53184 2.68082,0.0302 2.67716,6.57533 -0.006,9.89159 -3.20342,14.32064 -11.72806,16.24326 -1.8143,0.40919 -3.53349,0.32749 -3.84893,-0.18291 z M 376.2903,80.592989 c 1.53873,-1.0289 3.45123,-3.43486 4.25,-5.34659 1.65872,-3.96987 1.99813,-18.77625 0.45231,-19.73162 -0.55,-0.33991 -1,-1.40728 -1,-2.37192 0,-0.96464 -1.36839,-3.0649 -3.04087,-4.66724 -2.8881,-2.76697 -3.56165,-2.93262 -13.40598,-3.29703 -9.32872,-0.34532 -10.45693,-0.19771 -11.28344,1.47626 -0.50508,1.02296 -1.01561,9.67158 -1.13451,19.21915 l -0.21617,17.3592 11.29048,-0.38474 c 8.91686,-0.30386 11.87866,-0.77804 14.08818,-2.25547 z m 161.84624,49.433221 c -3.70847,-2.07054 -9.16695,-6.87822 -13.40164,-11.8038 -1.51675,-1.76419 -3.09438,-3.20763 -3.50586,-3.20763 -0.88253,0 -4.79021,8.29793 -5.77325,12.25945 -0.79051,3.18568 -2.26401,4.46208 -2.94831,2.55393 -0.8944,-2.494 -1.305,-42.825051 -0.44142,-43.358771 1.06038,-0.65535 3.92655,5.94002 3.92655,9.03542 0,3.68827 8.23913,18.638191 13.26504,24.069461 4.77696,5.16224 10.99199,8.94192 16.52211,10.04794 6.93053,1.38611 19.85567,-5.48403 20.32179,-10.80171 0.62969,-7.18367 -0.16078,-10.94926 -2.81476,-13.40889 -2.40206,-2.22615 -13.43178,-8.022931 -20.29418,-10.665801 -1.375,-0.52955 -3.175,-1.36393 -4,-1.85418 -2.24639,-1.33491 -4.99514,-2.50688 -10.09946,-4.30606 -10.97045,-3.86688 -17.40054,-13.16782 -17.40054,-25.1694 0,-9.849 2.92775,-14.88005 11.82401,-20.31836 3.05717,-1.86886 5.11104,-2.30972 10.24197,-2.19846 7.7116,0.16722 12.19241,2.25569 18.3916,8.57221 3.38032,3.4443 4.71105,4.2332 5.72339,3.39303 0.72547,-0.60208 1.31903,-1.51428 1.31903,-2.02711 0,-1.84277 4.07073,-9.8227 5.01076,-9.8227 0.58657,0 0.912,7.80408 0.83554,20.03685 -0.12919,20.66914 -0.93634,24.08017 -3.41069,14.41362 -4.22383,-16.50131 -13.18939,-28.6164 -23.59606,-31.88515 -4.93635,-1.55052 -5.6311,-1.55516 -9.20053,-0.0615 -2.12354,0.88864 -5.16104,3.0391 -6.75,4.77878 -2.55417,2.79646 -2.88902,3.90397 -2.88902,9.55535 0,6.09252 0.17328,6.55098 3.69542,9.77713 2.03248,1.86168 4.26721,3.38487 4.96607,3.38487 0.69886,0 2.74842,0.63312 4.55458,1.40694 1.80616,0.77381 6.20893,2.61419 9.78393,4.08973 25.41262,10.48872 31.80092,18.30775 28.88639,35.355821 -1.3082,7.65215 -2.13091,9.57615 -5.75547,13.45993 -6.00344,6.43279 -19.63156,8.80574 -26.98699,4.69901 z m 70.35607,0.0645 c -3.85247,-1.21426 -6.64483,-3.23444 -12.16681,-8.80231 l -7.1668,-7.22636 -3.0832,6.58864 c -1.69575,3.62374 -3.08319,7.4756 -3.08319,8.55969 0,1.08408 -0.509,1.80139 -1.13112,1.59402 -1.51531,-0.50509 -2.56244,-43.789611 -1.05935,-43.789611 0.56736,0 1.32876,1.4625 1.692,3.25 1.17895,5.80161 4.68025,14.970291 7.62216,19.959781 11.02876,18.70482 28.74351,24.21781 40.74931,12.68156 3.82368,-3.67414 4.0423,-4.19393 3.75861,-8.93644 -0.18393,-3.07481 -1.08115,-6.09047 -2.30435,-7.74515 -2.17594,-2.94351 -12.84467,-8.818051 -20.82726,-11.468151 -13.67788,-4.54085 -18.98008,-7.29614 -24.5196,-12.7416 -4.71833,-4.63821 -5.78217,-6.36178 -6.78956,-11 -1.31724,-6.06483 -0.25991,-15.9293 2.02098,-18.85494 7.02641,-9.01263 10.82017,-11.14506 19.82799,-11.14506 7.20063,0 12.9843,2.87369 18.31296,9.09904 1.8365,2.14553 3.58798,3.90096 3.89219,3.90096 0.80761,0 4.32325,-7.04607 5.11423,-10.25 0.3734,-1.5125 1.34534,-2.75 2.15986,-2.75 1.2573,0 1.48095,2.94483 1.48095,19.5 0,16.12721 -0.24424,19.5 -1.4121,19.5 -0.88748,0 -1.66588,-1.57895 -2.09518,-4.25 -1.6914,-10.52369 -12.46064,-27.19055 -19.33869,-29.92925 -6.76888,-2.69524 -13.661,-2.63255 -16.62418,0.15121 -1.18732,1.11543 -2.6089,2.02804 -3.15909,2.02804 -1.55355,0 -4.37076,6.6944 -4.37076,10.38605 0,3.86673 3.41814,9.27326 7,11.072 1.375,0.6905 3.91943,1.99492 5.65429,2.89871 1.73486,0.90378 3.67205,1.64324 4.30487,1.64324 0.63281,0 3.26338,0.92458 5.8457,2.05461 7.67073,3.35672 8.4746,3.68582 13.69388,5.60618 3.21931,1.18449 7.01536,3.82691 10.6638,7.42301 6.47001,6.3772 7.6007,10.16235 6.43485,21.541641 -0.9525,9.29702 -3.35793,13.23152 -10.48461,17.14943 -7.04866,3.87502 -13.37757,4.58154 -20.61278,2.30108 z m -172,-0.35346 c -4.95,-0.42763 -11.98985,-0.54141 -15.64411,-0.25286 -5.31864,0.41999 -6.75872,0.22598 -7.21861,-0.97249 -0.43153,-1.12452 0.17229,-1.49712 2.42622,-1.49712 6.54224,0 14.9365,-5.99651 14.9365,-10.67001 0,-1.20475 1.35,-5.10713 3,-8.67196 1.65,-3.56484 3,-7.39468 3,-8.510761 0,-1.11608 0.41084,-2.28315 0.91299,-2.59349 0.50214,-0.31034 1.22291,-2.39868 1.6017,-4.64075 0.3788,-2.24207 1.31518,-5.27722 2.08086,-6.74476 0.76567,-1.46755 1.3949,-4.07567 1.39829,-5.79583 0.003,-1.72015 0.68116,-3.68775 1.50616,-4.37244 0.825,-0.68468 1.5,-2.26335 1.5,-3.50813 0,-1.24479 0.67223,-3.55219 1.49384,-5.12756 0.82161,-1.57537 1.49661,-4.04671 1.5,-5.49186 0.003,-1.44516 0.68116,-3.18776 1.50616,-3.87245 0.825,-0.68468 1.5,-2.50332 1.5,-4.0414 0,-1.53808 0.652,-4.07048 1.44889,-5.62756 0.79688,-1.55707 1.69487,-3.6501 1.99552,-4.65117 0.95758,-3.1884 4.84946,-1.69031 6.0275,2.32013 0.56545,1.925 1.41687,4.10251 1.89206,4.83891 0.47518,0.73641 1.44583,3.43641 2.15699,6 1.42938,5.1526 6.03343,18.53082 7.45457,21.66109 0.49939,1.1 1.21642,3.56023 1.59339,5.46718 0.37696,1.90694 1.02323,4.15694 1.43615,5 2.13595,4.36095 3.99493,9.26224 3.99493,10.53282 0,1.3082 0.68247,3.121181 4.51724,12.000001 0.71264,1.65 2.33709,5.62729 3.6099,8.83843 2.65343,6.69427 5.22857,8.53645 11.61778,8.31097 2.32833,-0.0822 4.35072,0.25657 4.49421,0.75276 0.35719,1.23524 -42.59258,1.37761 -43.23913,0.14333 -0.29532,-0.56377 1.64169,-0.84084 4.73178,-0.67683 10.18113,0.54038 11.03581,-0.93895 6.40926,-11.09362 -1.57242,-3.45127 -3.46628,-8.07504 -4.20857,-10.27504 -2.19062,-6.49258 -1.8881,-6.37342 -15.59878,-6.14373 l -12.5427,0.21013 -2.15734,6.9668 c -2.27576,7.34922 -2.50602,11.96824 -0.75934,15.23194 1.48299,2.77101 7.17135,5.23486 12.08584,5.23486 2.28683,0 3.9105,0.40028 3.60814,0.88951 -0.86263,1.39575 -6.29448,1.67734 -16.06829,0.83298 z m 28.17234,-33.472471 c -4.69206,-14.63861 -11.33215,-33.20561 -11.8822,-33.22499 -0.39042,-0.0137 -1.22747,1.88749 -1.86011,4.22499 -0.63263,2.3375 -1.5519,5.15 -2.0428,6.25 -0.78898,1.76792 -7.88723,23.58526 -7.88723,24.24237 0,0.1417 5.45248,0.25763 12.11663,0.25763 11.08667,0 12.06895,-0.14876 11.55571,-1.75 z m 182.51213,33.472281 c -1.77879,-2.14331 -0.42621,-2.72228 6.35975,-2.72228 3.75355,0 6.61779,-0.49456 7.23933,-1.25 0.8623,-1.04807 1.09896,-48.494071 0.36558,-73.292591 l -0.14913,-5.0426 -4.32493,-1.15674 c -2.37871,-0.63621 -5.74133,-0.97748 -7.47249,-0.75839 -3.43199,0.43434 -4.52058,-0.36711 -3.26283,-2.40219 0.64019,-1.03584 7.4215,-1.28283 32.68402,-1.19038 17.53193,0.0641 33.34366,0.38731 35.13719,0.71812 1.89681,0.34986 3.84663,0.11541 4.66097,-0.56044 0.77001,-0.63904 1.64468,-0.76603 1.94372,-0.28218 0.29903,0.48385 0.52571,8.40541 0.50373,17.60347 -0.0435,18.22101 -0.9214,20.45506 -3.95127,10.05545 -2.29875,-7.89015 -5.06336,-13.13945 -9.32179,-17.69976 -4.11009,-4.40146 -7.38184,-5.84535 -13.01029,-5.74169 -2.24732,0.0414 -6.76503,-0.14586 -10.03936,-0.41611 -3.52317,-0.29078 -6.48264,-0.0521 -7.25,0.58478 -0.97587,0.8099 -1.29667,5.60791 -1.29667,19.39324 v 18.31708 l 6.25,-0.51896 c 5.25729,-0.43653 6.76621,-1.014 9.5,-3.6357 1.7875,-1.71421 3.25,-3.83846 3.25,-4.72057 0,-0.88211 0.42529,-2.03134 0.94509,-2.55384 0.5198,-0.5225 1.0823,-3.65 1.25,-6.95 0.18172,-3.5758 0.70894,-5.79798 1.30491,-5.5 0.61035,0.30518 1.04784,8.29292 1.12279,20.5 0.0675,11 0.27195,22.472801 0.45425,25.495121 0.2741,4.54417 0.0365,5.55191 -1.37279,5.82332 -1.32265,0.25472 -1.70425,-0.39757 -1.70425,-2.9132 0,-1.78278 -0.48708,-6.03844 -1.0824,-9.457031 -1.46025,-8.38537 -5.04933,-11.97644 -13.252,-13.25938 -4.76899,-0.74589 -5.93576,-0.64838 -6.38948,0.53399 -0.30529,0.79558 -0.3259,9.80911 -0.0458,20.030061 0.45689,16.67185 0.7027,18.72929 2.38948,20.00033 1.48031,1.11546 4.39049,1.29923 13.68309,0.86405 13.49173,-0.63184 15.94501,-1.79526 19.74085,-9.36172 1.17112,-2.33445 2.47427,-4.45766 2.8959,-4.71824 0.7148,-0.44177 2.22649,-5.07239 4.99061,-15.287301 2.21453,-8.1839 3.06975,-4.51471 3.06975,13.170411 v 17.4204 l -6.25,0.65973 c -3.4375,0.36285 -19.075,0.51116 -34.75,0.32959 -15.675,-0.18157 -29.65839,0.0363 -31.0742,0.48416 -1.80517,0.57102 -2.92288,0.39416 -3.74133,-0.59201 z m 20.63508,-26.55061 c 0.24018,-1.63227 -0.19448,-2.17167 -1.75,-2.17167 -1.34017,0 -2.06955,0.64613 -2.06955,1.83333 0,3.80163 3.26736,4.09105 3.81955,0.33834 z m 224.70366,24.07833 c -4.74457,-7.11149 -5.95538,-8.76671 -9.9824,-13.64627 -2.22245,-2.69294 -4.71581,-6.129 -5.54081,-7.63568 -0.825,-1.50667 -3.525,-5.5485 -6,-8.981831 -2.475,-3.43333 -4.95,-6.97035 -5.5,-7.86003 -0.55,-0.88969 -2.62687,-3.64454 -4.61526,-6.1219 -1.9884,-2.47736 -3.91803,-5.47521 -4.28807,-6.6619 -0.37004,-1.18669 -1.25284,-2.3802 -1.96177,-2.65225 -0.70893,-0.27204 -3.5043,-4.35251 -6.21193,-9.06771 -2.70763,-4.71521 -5.23435,-8.5842 -5.61493,-8.59776 -0.38058,-0.0136 -0.6599,13.72304 -0.62071,30.52579 0.0678,29.073441 0.17378,30.752541 2.19196,34.730361 2.38736,4.70547 4.14748,5.46901 12.95404,5.6195 4.1895,0.0716 5.71592,0.45193 5.41667,1.34968 -0.22917,0.6875 -1.16667,1.2125 -2.08333,1.16667 -0.91667,-0.0458 -10.25417,-0.15834 -20.75,-0.25 -14.67579,-0.12818 -18.98793,-0.4529 -18.67025,-1.40594 0.26235,-0.78704 2.45545,-1.24318 6.00987,-1.25 4.12017,-0.008 6.3417,-0.56676 8.42024,-2.11825 l 2.82347,-2.10753 0.26314,-34.797951 c 0.22622,-29.91612 0.0476,-35.12687 -1.27306,-37.14248 -0.8449,-1.28948 -2.37071,-2.34452 -3.39069,-2.34452 -1.01997,0 -2.4147,-0.675 -3.09939,-1.5 -0.75964,-0.9153 -2.95124,-1.5 -5.62244,-1.5 -3.73527,0 -4.37756,-0.29843 -4.37756,-2.03398 0,-1.96733 0.50768,-2.02672 15.49227,-1.81219 l 15.49228,0.22181 3.97418,6.06218 c 4.85761,7.40977 7.61904,11.44019 11.56998,16.88687 1.6658,2.29642 4.25362,6.28099 5.75071,8.8546 1.4971,2.5736 3.30936,5.2736 4.02724,5.99999 0.71789,0.7264 1.61439,1.99572 1.99224,2.82072 1.88412,4.11387 12.39062,19.396511 13.61535,19.804751 0.9571,0.31903 1.20758,-0.0449 0.7864,-1.14247 -0.33993,-0.885841 -0.67925,-12.375271 -0.75405,-25.532061 l -0.136,-23.92145 -3.4351,-3.32943 c -2.7212,-2.6375 -4.50353,-3.43853 -8.57615,-3.85438 -2.86491,-0.29254 -5.32698,-1.0883 -5.561,-1.79735 -0.33204,-1.00603 3.52156,-1.21538 18.40793,-1 17.01028,0.2461 18.86034,0.44134 19.16412,2.02239 0.28149,1.46499 -0.42486,1.75 -4.33708,1.75 -3.98142,0 -5.1767,0.50338 -8.07332,3.4 l -3.4,3.4 -0.067,10.35 c -0.22371,34.56859 0.0901,55.729431 0.86537,58.350001 1.20539,4.07454 0.35157,10.5 -1.39525,10.5 -0.75793,0 -2.5039,-1.6875 -3.87993,-3.75 z m 244.47678,2.61905 c -6.4326,-1.74705 -10.4561,-4.32279 -16.1786,-10.35707 -4.8881,-5.15438 -7.3214,-6.36623 -7.3214,-3.64625 0,0.38448 -0.7549,2.48448 -1.6775,4.66667 -0.9226,2.18218 -1.9437,5.2051 -2.269,6.7176 -0.3254,1.5125 -1.1809,2.75 -1.9012,2.75 -1.0324,0 -1.353,-4.53471 -1.5143,-21.42042 -0.1161,-12.158351 0.192,-21.665521 0.7127,-21.987291 1.0953,-0.67697 2.7517,3.37555 3.6409,8.90771 0.3536,2.2 1.6644,5.575001 2.9129,7.500001 1.2486,1.925 2.5537,4.64501 2.9003,6.04447 0.8094,3.26847 9.0919,12.53689 13.9505,15.61114 8.6495,5.47301 21.8363,3.81113 27.5987,-3.47818 2.6169,-3.31028 2.8573,-4.22655 2.407,-9.17743 -0.3111,-3.42062 -1.2124,-6.28184 -2.3839,-7.56799 -2.4907,-2.73429 -19.9509,-11.432011 -22.9492,-11.432011 -1.5938,0 -13.0213,-5.42556 -18.7244,-8.89 -2.4965,-1.51649 -5.574,-4.6715 -7.3457,-7.53042 -2.8596,-4.61473 -3.0263,-5.42237 -2.6827,-13 0.3131,-6.90353 0.7863,-8.70315 3.2511,-12.36362 1.5865,-2.35622 4.8622,-5.61872 7.2793,-7.25 3.7228,-2.51245 5.3623,-2.96596 10.7225,-2.96596 8.1719,0 12.2652,1.78951 18.2275,7.96853 2.6645,2.76138 5.1274,5.02311 5.4732,5.02608 0.3458,0.003 1.1814,-1.45711 1.857,-3.24461 2.3555,-6.23255 4.4791,-9.75 5.8863,-9.75 1.1459,0 1.2952,1.29206 0.7797,6.75 -0.3506,3.7125 -0.6407,12.5775 -0.6446,19.7 -0.01,14.27942 -0.8108,15.20348 -3.8939,4.48125 -3.3912,-11.79399 -9.7826,-21.53484 -16.3169,-24.86797 -13.1038,-6.6842 -25.7963,-1.68159 -25.7963,10.16729 0,8.87518 2.333,10.81549 22,18.29702 21.2031,8.06585 27.1379,12.48331 30.4739,22.68234 1.7752,5.427471 1.4958,9.805081 -1.1356,17.790071 -2.3658,7.17902 -7.6949,11.63868 -16.5311,13.83405 -5.3636,1.33259 -6.0216,1.33472 -10.8072,0.035 z m -16.3169,-49.056551 c -0.3192,-0.79773 -0.5562,-0.56078 -0.6042,0.60417 -0.043,1.05416 0.193,1.64479 0.5253,1.3125 0.3323,-0.3323 0.3678,-1.1948 0.079,-1.91667 z M 757.02596,127.80033 c -3.81972,-1.54981 -7.58556,-4.33707 -12.5,-9.25179 -7.56739,-7.56783 -9.88677,-11.04349 -11.03336,-16.53376 -0.40201,-1.925 -1.24147,-4.131661 -1.86546,-4.903691 -0.67877,-0.8398 -1.11397,-5.25875 -1.08334,-11 0.0736,-13.8008 3.54167,-22.95768 12.99935,-34.32279 3.99777,-4.80405 8.7588,-7.99726 15.91694,-10.67547 5.10021,-1.90823 6.41401,-2.02621 11.76268,-1.05631 6.58596,1.19426 12.25283,4.26265 17.97236,9.73131 l 3.70252,3.54012 3.04748,-3.26234 c 1.87902,-2.01149 3.04748,-4.3251 3.04748,-6.03414 0,-1.52449 0.675,-3.332 1.5,-4.01669 1.76701,-1.46649 1.83838,-0.74493 1.68154,17 -0.0559,6.325 -0.11963,14.575 -0.1416,18.33334 -0.0501,8.57756 -1.69477,8.50768 -4.07097,-0.17298 -5.04728,-18.43853 -16.57108,-30.67919 -30.03158,-31.89975 -4.83244,-0.43819 -6.15794,-0.14647 -9.81016,2.15908 -2.32252,1.46614 -4.49467,3.434 -4.827,4.37302 -0.33233,0.93901 -1.14329,2.38229 -1.80215,3.20729 -3.02726,3.79064 -4.58049,15.57957 -4.45434,33.80814 0.12659,18.291101 1.38598,26.622281 4.57589,30.270601 0.7592,0.86831 1.38037,2.08291 1.38037,2.69911 0,1.73846 6.05197,5.7602 10.61602,7.05471 5.58607,1.58439 10.60464,1.46777 12.94285,-0.30076 1.06762,-0.8075 2.77309,-1.4825 3.78992,-1.5 1.01683,-0.0175 3.15433,-1.42939 4.75,-3.13756 l 2.90121,-3.10575 v -13.78726 c 0,-15.740331 0.45107,-15.001231 -9.15511,-15.001231 -5.16795,0 -5.94521,-0.24055 -5.6545,-1.75 0.30835,-1.60107 2.14437,-1.75018 21.57404,-1.75215 13.74149,-0.001 21.12093,0.35155 20.90812,1 -0.18089,0.55118 -2.54045,1.14377 -5.24348,1.31686 -8.16662,0.52295 -8.77382,1.66485 -8.07469,15.185291 0.32707,6.325 0.87434,14.7625 1.21617,18.75 0.43253,5.04554 0.28173,7.25 -0.49596,7.25 -1.25267,0 -2.09798,-1.91888 -4.50031,-10.21593 -0.91025,-3.14376 -2.05469,-5.96295 -2.54321,-6.26487 -0.48852,-0.30192 -2.15786,1.77586 -3.70964,4.61729 -4.00591,7.3351 -10.80179,10.90483 -21.82143,11.46235 -6.5832,0.33306 -8.96815,0.0119 -13.46665,-1.81329 z m 161.47796,0.23275 c -1.14489,-1.85247 0.38637,-2.75401 5.51459,-3.24677 3.78774,-0.36395 5.81347,-1.20151 8.02085,-3.31632 1.62429,-1.55617 2.95325,-3.38373 2.95325,-4.06126 0,-0.67753 0.63918,-2.50584 1.4204,-4.06291 0.78122,-1.55707 2.17742,-4.85604 3.10266,-7.33104 0.92524,-2.475 2.08606,-5.28139 2.5796,-6.236431 0.49354,-0.95504 0.89734,-3.06598 0.89734,-4.69098 0,-1.62501 0.42128,-3.21492 0.93618,-3.53315 0.5149,-0.31822 1.89868,-3.83228 3.07507,-7.80901 1.17639,-3.97674 2.76457,-8.58043 3.52929,-10.23043 0.76472,-1.65 1.69299,-4.35 2.06282,-6 0.36983,-1.65 0.97931,-3.45 1.3544,-4 0.37509,-0.55 1.27273,-3.025 1.99475,-5.5 3.92891,-13.46776 5.71179,-17.50039 7.87831,-17.81955 1.28006,-0.18857 2.18309,0.22132 2.20311,1 0.0187,0.72576 0.90339,3.11955 1.96607,5.31955 1.06268,2.2 1.94741,4.56861 1.96607,5.26357 0.0344,1.28175 0.38207,2.1153 3.36473,8.06747 0.91806,1.83208 1.67197,4.30708 1.67536,5.5 0.003,1.19293 0.66156,3.42547 1.46261,4.9612 0.80105,1.53574 1.74929,4.35321 2.1072,6.26105 0.35792,1.90784 1.04974,3.71539 1.53739,4.01677 0.48765,0.30139 0.88664,1.40938 0.88664,2.46221 0,1.05282 0.96585,4.06377 2.14633,6.69098 1.18047,2.62721 2.47077,5.67675 2.86731,6.77675 2.82816,7.845171 7.4491,19.161941 8.14611,19.950001 0.46214,0.5225 0.84025,1.74247 0.84025,2.71104 0,0.96858 1.0125,2.71777 2.25,3.88709 1.82505,1.7245 3.14699,2.04289 6.99939,1.6858 3.0896,-0.28638 5.1161,0.002 5.7986,0.82389 1.585,1.90988 -0.1717,2.48906 -6.7162,2.2142 -3.2075,-0.1347 -12.59533,0.13933 -20.86188,0.60897 -13.25401,0.75299 -15.18755,0.66416 -16.36262,-0.75172 -1.71851,-2.07067 -0.64804,-2.48445 7.38299,-2.85378 6.83532,-0.31435 7.93159,-1.84067 5.19742,-7.23624 -2.40753,-4.75097 -4.33305,-9.66228 -5.60222,-14.28925 l -1.16576,-4.250001 h -13.45986 c -12.29468,0 -13.45986,0.15582 -13.45986,1.800001 0,0.99 -0.38882,2.2275 -0.86404,2.75 -1.64317,1.80664 -3.1592,10.45248 -2.52656,14.40881 0.82367,5.15094 3.69313,7.04119 10.68875,7.04119 5.6857,0 6.84777,0.45618 6.10341,2.39593 -0.5987,1.56019 -38.94093,2.15841 -39.89025,0.62237 z m 51.76513,-33.518301 c -0.48318,-2.16137 -3.33877,-10.08435 -4.15664,-11.53282 -0.47602,-0.84306 -1.19967,-3.09306 -1.60812,-5 -0.40844,-1.90695 -1.04629,-3.91718 -1.41744,-4.46718 -0.37115,-0.55 -1.52541,-3.61142 -2.56502,-6.80316 -2.1163,-6.4973 -2.3219,-6.36524 -5.52149,3.54639 -1.19723,3.70877 -2.58875,6.99783 -3.09226,7.30902 -0.50351,0.31118 -0.91547,1.55808 -0.91547,2.77088 0,1.21281 -0.9,4.6674 -2,7.67687 -3.11708,8.52796 -3.56629,8.16799 9.75,7.81312 7.15765,-0.19074 11.66263,-0.70396 11.52644,-1.31312 z m 201.72355,33.043811 c 0,-1.114 1.7037,-1.52523 7.25,-1.75 l 7.25,-0.29381 V 86.917239 c 0,-31.24523 -0.2614,-38.9123 -1.3724,-40.24999 -1.0137,-1.22042 -3.04,-1.65247 -7.75,-1.65247 -5.0208,0 -6.3776,-0.32121 -6.3776,-1.50984 0,-1.28355 2.6604,-1.53462 17.75,-1.67513 49.0464,-0.4567 57.7516,-0.32339 57.5181,0.88078 -0.1276,0.65769 -0.2733,8.22162 -0.3238,16.80873 -0.068,11.46227 -0.4036,15.50902 -1.2645,15.22207 -0.6449,-0.21498 -1.4247,-1.92891 -1.7329,-3.80873 -0.548,-3.34341 -3.9163,-10.88212 -8.0265,-17.96451 -3.2219,-5.55176 -9.2056,-7.74685 -21.5798,-7.9164 -6.9895,-0.0958 -10.3922,0.23748 -10.9055,1.06809 -0.4104,0.66401 -0.9455,9.3037 -1.1891,19.19931 l -0.443,17.992 6.8485,-0.70129 c 5.4659,-0.55971 7.4037,-1.23305 9.5985,-3.33528 1.5125,-1.44868 2.75,-3.35979 2.75,-4.24689 0,-0.8871 0.4262,-2.04041 0.9472,-2.56291 0.521,-0.5225 1.0835,-3.76707 1.25,-7.21016 0.1665,-3.4431 0.7528,-6.25591 1.3028,-6.25071 0.6359,0.006 1.0684,9.47585 1.1879,26.01016 0.1593,22.033251 -0.031,26.000711 -1.25,26.000711 -1.0821,0 -1.4415,-1.42264 -1.4525,-5.75 -0.034,-13.641381 -6.0155,-20.978171 -16.0197,-19.651061 l -4.9657,0.65872 0.1085,13.62117 c 0.06,7.491641 0.3972,16.321171 0.75,19.621171 0.6165,5.76624 0.7584,6.01177 3.6415,6.3022 3.4734,0.34988 6.0703,0.31754 13,-0.16188 2.75,-0.19026 6.1296,-0.41216 7.5103,-0.49312 6.2151,-0.36444 16.9827,-16.19024 18.4946,-27.182521 0.6803,-4.94652 2.1149,-7.27174 2.948,-4.77806 0.2413,0.72236 0.6332,8.841811 0.8709,18.043231 l 0.4321,16.72984 -11.6279,-0.21228 c -6.3954,-0.11675 -17.5811,0.18025 -24.857,0.66001 -10.3467,0.68224 -13.5669,0.59191 -14.7796,-0.41458 -1.2007,-0.99646 -2.1188,-1.02802 -4.0681,-0.13986 -1.3846,0.63086 -6.7712,1.14702 -11.9704,1.14702 -7.6095,0 -9.4529,-0.28397 -9.4529,-1.45619 z m 97.5644,0.68729 c -1.546,-1.54604 -0.069,-2.2311 4.8106,-2.2311 2.9563,0 6.7027,-0.26553 8.3254,-0.59008 l 2.9504,-0.59007 -0.075,-40.159931 -0.076,-40.15992 -5.4582,0.3349 c -4.3077,0.26431 -6.0234,0.89666 -8.1397,3 -3.9904,3.96594 -11.9021,21.17285 -11.9021,25.88535 0,4.45055 -2.4372,8.86152 -3.452,6.24758 -0.3271,-0.8427 -0.4718,-9.84269 -0.3214,-20 l 0.2734,-18.46783 h 36.8418 36.8418 v 19.25 c 7e-4,10.5875 -0.3078,19.3625 -0.6855,19.5 -0.3778,0.1375 -1.7336,-2.96094 -3.013,-6.88542 -1.2795,-3.92449 -2.7624,-7.97449 -3.2954,-9 -0.533,-1.02552 -1.8027,-3.66458 -2.8214,-5.86458 -1.0188,-2.2 -2.4912,-4.79059 -3.2721,-5.75688 -0.7809,-0.96629 -1.9187,-2.75742 -2.5283,-3.98029 -1.5127,-3.03408 -5.2257,-4.73047 -10.3925,-4.74808 l -4.3223,-0.0147 0.5872,35.75 c 0.323,19.6625 0.8637,37.650471 1.2015,39.973261 0.7197,4.94709 1.9603,5.59999 10.8415,5.70559 4.5233,0.0538 6.0557,0.44281 6.2797,1.59417 0.2583,1.3279 -2.8382,1.539 -24.169,1.64777 -13.4558,0.0686 -24.7191,-0.12924 -25.0296,-0.43969 z m 475.7713,-3.95678 c -2.2102,-2.62588 -4.6523,-5.84842 -5.4271,-7.16121 -0.7747,-1.31278 -2.6461,-3.77557 -4.1586,-5.47286 -1.5125,-1.69728 -2.75,-3.43772 -2.75,-3.86764 0,-0.8906 -8.3917,-13.246801 -11.0515,-16.272611 -0.967,-1.1 -2.5884,-3.39144 -3.6033,-5.09208 -2.6352,-4.416 -7.0123,-10.83377 -12.9364,-18.96773 -2.828,-3.8829 -5.7447,-8.72697 -6.4815,-10.76461 -2.8318,-7.83133 -3.4256,-3.47892 -3.5343,25.90847 -0.095,25.626081 0.094,29.377441 1.664,32.972161 2.4522,5.61631 3.8583,6.50089 11.5577,7.27116 3.9264,0.39282 6.894,1.18756 7.1336,1.91045 0.3189,0.9622 -4.2093,1.18487 -20.3363,1 -14.3505,-0.1645 -20.8625,-0.58641 -21.1228,-1.36855 -0.2448,-0.7354 1.8358,-1.27159 5.9508,-1.53361 8.9419,-0.56938 10.8229,-2.62418 11.6413,-12.71745 0.4895,-6.03529 0.6374,-38.764551 0.2513,-55.583091 -0.1526,-6.648 -1.1404,-8.48866 -5.6599,-10.54756 -2.3996,-1.09316 -5.9361,-1.98756 -7.8588,-1.98756 -1.9227,0 -3.7425,-0.39901 -4.0439,-0.88669 -1.1918,-1.92841 2.1106,-2.81601 7.93,-2.1314 3.3,0.38822 7.125,0.41833 8.5,0.0669 1.375,-0.35142 5.1593,-0.58212 8.4095,-0.51266 5.2559,0.1123 6.168,0.44915 8.2451,3.04506 1.2845,1.60533 2.3377,3.41154 2.3404,4.0138 0,0.60226 0.8731,1.88067 1.9342,2.84091 1.0611,0.96025 2.6572,3.28 3.5469,5.15499 0.8898,1.875 2.0354,3.40909 2.5458,3.40909 0.5105,0 1.8362,1.9125 2.9461,4.25 2.8643,6.03235 23.2648,36.0114 24.8612,36.5342 1.0872,0.35601 1.2693,-4.00104 1,-23.92446 -0.2876,-21.27861 -0.5523,-24.68808 -2.0932,-26.95562 -2.2964,-3.3792 -5.7864,-4.90413 -11.224,-4.90413 -4.4679,0 -6.5347,-1.24988 -4.3251,-2.61549 0.6707,-0.41453 8.8905,-0.82481 18.2663,-0.91172 13.7533,-0.1275 17.3803,0.12718 18.7732,1.31824 2.5517,2.18198 1.243,3.20897 -4.0893,3.20897 -4.1235,0 -5.196,0.46545 -8.1909,3.55458 l -3.4462,3.55458 v 28.19542 c 0,15.50748 0.2271,33.099921 0.5,39.094311 0.3316,7.28379 0.1403,11.02342 -0.5768,11.27432 -0.5901,0.20648 -2.8812,-1.77302 -5.0913,-4.39889 z m 4.1643,-81.274321 c -0.3399,-0.55 -1.0415,-1 -1.559,-1 -0.5176,0 -0.941,0.45 -0.941,1 0,0.55 0.7016,1 1.559,1 0.8575,0 1.2809,-0.45 0.941,-1 z m 259.1832,85.349821 c -0.3189,-0.3189 -12.3908,-0.67859 -26.8264,-0.79931 -18.9232,-0.15825 -26.3549,-0.54469 -26.635,-1.385 -0.2322,-0.69672 0.7045,-1.16551 2.3288,-1.16551 4.5507,0 10.442,-2.18484 10.5385,-3.90829 0.9994,-17.85417 1.1639,-71.139961 0.2314,-74.914631 -0.6934,-2.80633 -3.9374,-4.17708 -9.8856,-4.17708 -3.2891,0 -4.4349,-0.39023 -4.4349,-1.51047 0,-1.31177 3.4218,-1.49413 26.0113,-1.38622 14.7463,0.0704 26.2594,0.52568 26.5842,1.05115 0.315,0.5098 1.5474,0.61114 2.7387,0.22521 1.1912,-0.38593 5.9244,-0.69377 10.5182,-0.68408 9.0261,0.019 10.1366,0.62186 9.4466,5.12788 -0.2254,1.47209 -0.5439,8.30153 -0.7078,15.17653 -0.1638,6.875 -0.7014,12.5797 -1.1945,12.6771 -0.4932,0.0974 -1.6377,-2.3776 -2.5434,-5.5 -3.8713,-13.34639 -9.0111,-20.21419 -16.5731,-22.14496 -5.5535,-1.41796 -23.0425,-2.2258 -23.7404,-1.0966 -0.2609,0.42216 -0.7686,8.70936 -1.1283,18.41601 l -0.6539,17.64845 h 5.5561 c 10.7699,0 14.0851,-3.40546 15.2322,-15.6469 0.4929,-5.25943 1.0827,-7.3531 2.0716,-7.3531 1.5993,0 1.5162,-1.71004 1.3837,28.47179 -0.071,16.163611 -0.4424,23.182871 -1.2533,23.684021 -2.0879,1.29039 -2.5317,-0.0549 -2.4405,-7.3977 0.077,-6.170071 -0.294,-7.859941 -2.4726,-11.272791 -3.6127,-5.65947 -4.5749,-6.24346 -11.5947,-7.03767 l -6.2401,-0.70598 v 19.474181 c 0,17.30704 0.1947,19.6416 1.75,20.97864 2.1196,1.82217 21.2481,2.4121 24.3518,0.75103 2.8094,-1.50354 8.6457,-7.95482 10.1283,-11.19552 0.692,-1.5125 1.6248,-2.75 2.073,-2.75 0.4482,0 0.5539,-0.42234 0.2349,-0.93854 -0.319,-0.5162 -0.01,-1.3037 0.691,-1.75 1.7224,-1.09963 3.8891,-6.83955 4.6474,-12.311461 0.4235,-3.05618 1.1049,-4.5 2.1236,-4.5 1.277,0 1.5,2.6387 1.5,17.748291 0,11.06994 -0.3763,17.80225 -1,17.89169 -0.55,0.0789 -4.4656,0.27707 -8.7013,0.44047 -4.2357,0.16339 -8.5641,0.7588 -9.6185,1.32313 -1.0545,0.56433 -2.1782,0.76514 -2.497,0.44624 z m -656.6832,-1.7018 c 0,-1.34865 1.0963,-1.64802 6.0352,-1.64802 3.9856,0 6.9124,-0.57479 8.6183,-1.69257 2.483,-1.62692 2.5557,-1.94688 1.8745,-8.25 -0.3897,-3.60658 -0.6563,-21.519931 -0.5924,-39.807431 0.1,-28.60847 -0.089,-33.25 -1.3506,-33.25 -0.8069,0 -1.7086,0.3909 -2.0038,0.86865 -0.2953,0.47776 -2.2534,1.14314 -4.3515,1.47863 -4.0455,0.6469 -7.8204,3.92686 -10.534,9.15272 -5.2093,10.03248 -6.6556,14.27794 -7.4095,21.75 -0.4369,4.33006 -1.0217,5.21926 -2.9598,4.5 -0.3706,-0.1375 -0.6112,-8.8 -0.5347,-19.25 l 0.1389,-19 17.7847,-0.81333 c 9.7816,-0.44733 26.3347,-0.89733 36.7847,-1 l 19,-0.18667 0.2711,19.75 c 0.2168,15.79043 0.01,19.75 -1.0437,19.75 -0.8015,0 -1.8445,-2.44005 -2.6714,-6.25 -1.2121,-5.58389 -6.0412,-16.30258 -10.83,-24.03794 -2.4606,-3.97456 -7.1213,-6.69781 -11.476,-6.70547 l -3.75,-0.007 v 37.9349 c 0,21.672501 0.4093,39.011481 0.9548,40.446211 1.0313,2.71262 4.406,3.77468 12.7052,3.99849 2.4674,0.0665 4.3251,0.56779 4.1525,1.1204 -0.1873,0.59927 -6.3234,1.06079 -15.3125,1.1517 -8.25,0.0834 -19.1625,0.48754 -24.25,0.89802 -8.2267,0.66376 -9.25,0.56401 -9.25,-0.9017 z m 71.6907,0.52984 c -4.8306,-0.55393 -2.4608,-2.62762 2.644,-2.31369 2.5813,0.15873 6.0405,-0.007 7.6871,-0.36895 l 2.9938,-0.65756 -0.487,-39.480641 c -0.2678,-21.71435 -0.7068,-39.83639 -0.9756,-40.27121 -0.2687,-0.43482 -3.4921,-1.07106 -7.1631,-1.41386 -6.4766,-0.60479 -8.2562,-1.13898 -7.2261,-2.16912 0.5729,-0.57283 -0.2994,-0.55404 23.5381,-0.50682 10.011,0.0198 18.561,-0.0244 19,-0.0984 2.3441,-0.3949 4.4178,0.24343 4.0802,1.25601 -0.2157,0.6473 -3.2149,1.34507 -6.8333,1.58983 -3.5468,0.23992 -7.0113,0.90089 -7.6988,1.46883 -0.9576,0.79108 -1.2398,9.13188 -1.2064,35.66016 0.044,34.850561 0.5892,42.646771 3.0944,44.234001 0.7491,0.47462 4.3995,0.86983 8.112,0.87825 3.8231,0.009 6.75,0.44892 6.75,1.01531 0,0.55 -1.4625,1.00308 -3.25,1.00685 -1.7875,0.004 -11.575,0.11626 -21.75,0.25 -10.175,0.13373 -19.7642,0.0982 -21.3093,-0.079 z m 62.8168,0.0297 c -4.9458,-0.16086 -9.4233,-0.72336 -9.95,-1.25 -0.61,-0.61004 0.04,-0.95753 1.7922,-0.95753 3.2382,0 7.4462,-2.01201 9.9162,-4.74132 1.6087,-1.77757 1.7636,-4.93171 1.7893,-36.427811 0.016,-20.2759 -0.3775,-35.54836 -0.9563,-37.07073 -1.083,-2.84859 -3.9974,-4.18229 -8.5989,-3.93517 -3.4843,0.18712 -6.4891,-1.33787 -4.9916,-2.53332 0.5454,-0.43541 7.5388,-0.65704 15.5409,-0.49251 l 14.5493,0.29913 1.2827,3.20087 c 0.7056,1.76047 2.38,6.57586 3.7211,10.70086 1.3411,4.125 2.8792,8.2814 3.418,9.23644 0.5388,0.95503 0.9824,2.53003 0.9858,3.5 0,0.96996 0.6783,3.0525 1.5,4.62787 0.8216,1.57537 1.4938,3.47214 1.4938,4.21505 0,0.74291 0.626,3.27897 1.3911,5.63569 0.7651,2.35672 2.1856,6.98495 3.1568,10.28495 0.9712,3.3 2.1035,6.38581 2.5163,6.85736 1.0015,1.14406 2.5131,-1.93614 3.3651,-6.85736 0.64,-3.69669 1.2235,-5.98751 5.0939,-20 0.7595,-2.75 1.6129,-6.125 1.8963,-7.5 2.2266,-10.80291 3.0005,-13.8753 4.1559,-16.5 0.7264,-1.65 1.5492,-4.125 1.8285,-5.5 l 0.5077,-2.5 h 15.5679 c 13.3073,0 15.5236,0.21782 15.2624,1.5 -0.234,1.14875 -1.5014,1.42724 -5.4124,1.18926 -4.6815,-0.28488 -5.2826,-0.0638 -7.2181,2.65437 -2.0462,2.87361 -2.1101,3.96338 -2.0678,35.31074 0.044,32.662891 0.6132,40.380041 3.0944,41.952071 0.7491,0.47462 3.762,0.86983 6.6953,0.87825 3.8163,0.011 5.2153,0.37087 4.9184,1.26531 -0.3058,0.92132 -5.6524,1.38151 -20.3333,1.75016 -10.9551,0.27509 -20.5667,0.72509 -21.359,1 -0.8307,0.28823 -1.6019,-0.23709 -1.8215,-1.24083 -0.3318,-1.51611 0.1885,-1.66262 4.0333,-1.13564 2.9471,0.40395 5.3252,0.1277 7.1553,-0.8312 l 2.7412,-1.43623 0.3417,-37.428131 c 0.188,-20.58547 -0.018,-36.52813 -0.4589,-35.42813 -0.4404,1.1 -1.3276,4.025 -1.9715,6.5 -0.6439,2.475 -1.6257,6.075 -2.1817,8 -0.556,1.925 -1.441,5.20271 -1.9667,7.2838 -0.5257,2.08108 -1.382,4.55608 -1.9028,5.5 -0.5208,0.94391 -1.3957,3.7412 -1.9441,6.2162 -1.4705,6.63577 -4.0629,16.21248 -5.0079,18.500001 -1.2696,3.07308 -3.7998,12.38655 -5.0258,18.5 -1.8339,9.14435 -4.3729,10.60768 -5.5782,3.21492 -0.3331,-2.04321 -1.2682,-5.28992 -2.0779,-7.21492 -0.8097,-1.925 -1.4956,-3.95 -1.5242,-4.5 -0.029,-0.55 -0.6324,-2.125 -1.3418,-3.5 -0.7093,-1.375 -2.9614,-7.9 -5.0045,-14.500001 -2.0431,-6.6 -4.0786,-12.9 -4.5234,-14 -0.6319,-1.56254 -5.1633,-16.08035 -7.5691,-24.25 -1.4493,-4.92146 -1.8967,2.58038 -1.6698,27.99948 0.2108,23.612201 0.5634,30.067941 1.8291,33.491151 1.6388,4.43199 4.5029,6.42461 11.1598,7.76425 1.8768,0.37768 3.25,1.26843 3.25,2.10813 0,1.1645 -1.4439,1.39763 -7.25,1.17055 -3.9875,-0.15596 -11.2966,-0.41517 -16.2425,-0.57603 z m 26.9615,-40.257701 c -0.7711,-1.24769 -3.1857,-1.21717 -3.969,0.0502 -1.141,1.84616 0.4895,3.07598 2.5887,1.95253 1.082,-0.57908 1.7032,-1.4803 1.3803,-2.0027 z m 393.031,39.838061 c -4.4,-0.47037 -13.9741,-0.72756 -21.2757,-0.57155 -11.3445,0.2424 -13.2338,0.0661 -12.9872,-1.21168 0.2102,-1.08949 1.9033,-1.5678 6.238,-1.7623 3.2722,-0.14683 6.2504,-0.59893 6.6181,-1.00466 0.3678,-0.40574 0.8974,-17.92557 1.177,-38.932961 0.5909,-44.40432 1.3167,-41.30477 -9.6723,-41.30477 -5.8184,0 -6.6994,-0.23422 -6.4161,-1.70573 0.2982,-1.54839 2.4959,-1.70988 23.8234,-1.75063 12.9221,-0.0247 24.0573,0.34799 24.7448,0.82818 2.6891,1.87825 0.95,2.62818 -6.095,2.62818 -5.7321,0 -7.6937,0.38524 -8.9326,1.75428 -1.3786,1.52326 -1.6294,6.7178 -1.905,39.4476 -0.2074,24.635751 0.035,38.046431 0.6995,38.712621 0.5593,0.56061 3.0343,1.26842 5.5,1.57292 2.4657,0.3045 5.9296,0.81812 7.6975,1.14138 4.3292,0.79159 13.2601,-1.39801 16.0418,-3.93299 2.91,-2.65188 8.2438,-12.09651 8.2438,-14.59733 0,-1.0625 0.4544,-2.08327 1.0097,-2.26838 0.5553,-0.18511 1.5678,-3.70538 2.25,-7.822821 0.9492,-5.72903 1.6511,-7.56462 2.9903,-7.8201 1.5664,-0.29881 1.75,0.65413 1.75,9.08393 0,5.179771 0.2893,14.146461 0.643,19.925981 l 0.6429,10.50821 -17.3929,-0.0311 c -9.5662,-0.0171 -20.993,-0.41595 -25.393,-0.88631 z m -134.153,-1.03792 c -1.0013,-1.61476 0.8496,-2.51391 6.4878,-3.1518 4.403,-0.49814 6.4584,-1.2814 8.1847,-3.11891 2.2769,-2.42367 3.0939,-4.41998 11.4515,-27.979291 2.3413,-6.6 4.5292,-12.675 4.862,-13.5 0.3328,-0.825 1.7488,-5.05969 3.1467,-9.41043 1.3979,-4.35074 2.9237,-8.40074 3.3905,-9 0.8736,-1.12149 2.5685,-5.80551 5.7314,-15.83957 1.9044,-6.0413 2.4478,-6.60031 4.2755,-4.3981 1.0892,1.31245 5.7679,13.11267 6.799,17.1481 1.4399,5.63514 4.6779,15.11541 5.4477,15.95 0.4819,0.5225 0.879,1.8725 0.8824,3 0,1.1275 0.6615,3.30651 1.4626,4.84224 0.801,1.53573 1.7493,4.3532 2.1072,6.26105 0.3579,1.90784 1.0497,3.71539 1.5374,4.01677 0.4876,0.30139 0.8866,1.24091 0.8866,2.08783 0,1.55784 1.928,6.49217 4.5612,11.673151 0.7913,1.55707 1.4388,3.67076 1.4388,4.69708 0,1.85059 3.9598,10.01362 6.1204,12.61692 0.7126,0.85871 3.2771,1.35496 7.002,1.35496 4.9311,0 5.8776,0.28182 5.8776,1.75 -10e-5,1.61102 -1.7473,1.75686 -22,1.83633 -17.7344,0.0696 -22,-0.17276 -22,-1.25 0,-0.97871 1.7479,-1.33633 6.5314,-1.33633 7.4482,0 8.6535,-1.17944 6.5378,-6.39746 -0.6919,-1.7064 -2.1555,-5.80254 -3.2525,-9.10254 -1.0969,-3.3 -2.4045,-6.78139 -2.9056,-7.73643 -0.5011,-0.955041 -0.9107,-2.305041 -0.9103,-3.000001 0,-1.79073 -25.0191,-1.334 -26.1753,0.47781 -0.4417,0.69224 -1.7343,4.183621 -2.8725,7.758621 -1.8334,5.75873 -1.9203,6.95617 -0.7612,10.5 1.5255,4.66443 6.0789,7.49597 12.0582,7.49845 2.5568,0.001 3.75,0.4495 3.75,1.40938 0,1.16792 -3.3391,1.38094 -19.594,1.25 -10.7766,-0.0868 -19.8032,-0.49533 -20.059,-0.90783 z m 52.653,-32.257471 c 0,-0.75597 -0.399,-1.62108 -0.8866,-1.92247 -0.4877,-0.30138 -1.203,-2.24044 -1.5895,-4.30901 -0.3866,-2.06858 -1.0256,-4.21105 -1.4201,-4.76105 -0.7737,-1.07883 -4.5164,-12.83675 -5.8672,-18.43198 -0.8535,-3.53558 -3.2366,-5.47776 -3.2366,-2.63778 0,0.8783 -0.4087,2.3783 -0.9082,3.33333 -1.1333,2.1669 -5.9185,16.37306 -7.3217,21.73643 -0.5755,2.2 -1.4343,4.4275 -1.9083,4.95 -2.2813,2.51473 -0.4138,3.05679 11.1401,3.23351 9.6004,0.14684 11.9981,-0.0912 11.9981,-1.19098 z m -246.312,31.862181 c -1.4859,-1.48599 -0.4893,-2.12341 4.3172,-2.76101 7.0475,-0.93489 10.9456,-4.62425 13.465,-12.74404 1.0835,-3.49231 2.5433,-7.47466 3.2438,-8.84966 0.7005,-1.375001 1.2765,-3.422501 1.2798,-4.550001 0,-1.1275 0.4646,-2.50844 1.025,-3.06875 0.5603,-0.56031 1.8535,-3.9379 2.8738,-7.50574 1.0203,-3.56784 2.5869,-7.90205 3.4813,-9.63158 0.8943,-1.72953 1.6261,-4.42695 1.6261,-5.99427 0,-1.56731 0.485,-3.33464 1.0777,-3.92739 0.5928,-0.59276 1.4594,-2.59526 1.9259,-4.45 1.208,-4.8036 7.6481,-22.85734 8.4339,-23.64314 1.0247,-1.02467 4.0231,1.27154 4.4112,3.37806 0.1917,1.04105 0.9253,3.24281 1.6302,4.89281 1.8953,4.43688 7.1807,19.11047 9.416,26.14136 1.0738,3.37774 2.3989,6.97774 2.9445,7.99999 0.5457,1.02226 1.98,5.00865 3.1874,8.85865 1.2074,3.85 2.5953,7.4275 3.0843,7.95 0.4889,0.5225 0.8917,1.6475 0.8951,2.5 0,0.852501 0.6783,2.838941 1.5,4.414311 0.8216,1.57537 1.4938,3.49615 1.4938,4.2684 0,1.17875 4.4652,10.77058 5.7572,12.36729 0.2226,0.275 3.4057,0.725 7.0737,1 5.0392,0.3778 6.6691,0.86659 6.6691,2 0,1.28785 -3.1096,1.5 -21.9863,1.5 -20.5823,0 -22.009,-0.11792 -22.3419,-1.84656 -0.2878,-1.49412 0.062,-1.71386 1.835,-1.15127 3.2543,1.03285 11.0152,-0.39581 11.689,-2.15174 0.3186,-0.83026 -0.3517,-3.38625 -1.4896,-5.67999 -2.6057,-5.2527 -5.2405,-12.34467 -5.9147,-15.920441 l -0.5185,-2.75 h -13.4179 c -9.8586,0 -13.5218,0.33158 -13.8097,1.25 -4.4255,14.116381 -4.6814,15.586331 -3.2095,18.432731 2.5576,4.94587 5.2255,6.61083 10.9135,6.81097 3.7657,0.13249 5.2506,0.58373 5.2506,1.59552 0,1.15396 -3.3791,1.46018 -18.562,1.68215 -10.209,0.14926 -18.8715,-0.0382 -19.25,-0.41666 z m 49.946,-34.434551 c -0.3387,-1.6939 -1.2525,-4.5064 -2.0306,-6.25 -1.6339,-3.66135 -3.5197,-9.17412 -6.6538,-19.45138 -1.2213,-4.00468 -2.3371,-7.15468 -2.4797,-7 -0.1426,0.15467 -1.6905,4.55622 -3.4399,9.78122 -1.7493,5.225 -3.5808,10.4 -4.07,11.5 -1.8751,4.21679 -4.6206,13.50605 -4.1352,13.99143 0.2797,0.27971 5.6648,0.50857 11.9669,0.50857 h 11.4583 z m -484.634,-27.47917 c 0,-0.85746 0.4573,-1.27637 1.0163,-0.9309 0.559,0.34546 0.7574,1.04702 0.441,1.55901 -0.8572,1.38705 -1.4573,1.12841 -1.4573,-0.62811 z m -127.5,-6.44099 c -0.3399,-0.55 0.083,-1 0.941,-1 0.8574,0 1.559,0.45 1.559,1 0,0.55 -0.4234,1 -0.941,1 -0.5175,0 -1.2191,-0.45 -1.559,-1 z"
       id="path1" />
  </g>
</svg>
